<svg id="Layer_1" data-name="Layer 1" xmlns="http://www.w3.org/2000/svg" xmlns:xlink="http://www.w3.org/1999/xlink" viewBox="0 0 1089.31919 1080"><defs><style>.cls-1{fill:#d9a374;}.cls-2{fill:#e0bb90;}.cls-3{fill:#c89b6b;}.cls-4{fill:#f4a051;}.cls-5{fill:#faf6e2;}.cls-6{fill:#ea6133;}.cls-7{fill:#eb7036;}.cls-8{fill:#f5b265;}.cls-9{fill:#fad25c;}.cls-10{fill:#f7e275;}.cls-11{fill:#f7b548;}.cls-12{fill:url(#linear-gradient);}.cls-13{fill:url(#linear-gradient-2);}.cls-14{fill:url(#linear-gradient-3);}</style><linearGradient id="linear-gradient" x1="538.99424" y1="829.01861" x2="538.99424" y2="542.26463" gradientUnits="userSpaceOnUse"><stop offset="0" stop-color="#fa972f"/><stop offset="1" stop-color="#fcd55b"/></linearGradient><linearGradient id="linear-gradient-2" x1="416.06806" y1="561.63176" x2="416.06806" y2="561.60153" xlink:href="#linear-gradient"/><linearGradient id="linear-gradient-3" x1="538.99341" y1="829.01861" x2="538.99341" y2="661.08967" gradientUnits="userSpaceOnUse"><stop offset="0" stop-color="#fcc368"/><stop offset="1" stop-color="#fbe68f"/></linearGradient></defs><path class="cls-1" d="M297.67459,721.93268c-23.20984,40.39679-56.10753,69.07955-101.10068,82.71774-8.67672,2.63-17.90405,3.44391-26.87813,5.09823-.51273-7.42078,4.88854-5.82945,9.34579-6.56294,11.66146-1.919,24.70449-1.14038,32.561-14.53745-4.004-2.12364-7.17144-4.22344-10.63145-5.57266-29.85238-11.63961-56.58864-28.22976-77.16942-52.88708-9.59081-11.49071-16.091-25.56125-23.992-38.463,11.8239,1.48783,23.61092,3.76767,35.47838,4.3209,40.73367,1.8987,77.40975-11.76772,112.35865-31.00666,4.12215-2.2692,6.948-6.89279,10.37481-10.425l.01064.03539q4.66311-2.34432,9.32607-4.6885c6.24089-5.14562,13.15766-9.66529,18.60363-15.54681,21.76287-23.50253,42.81921-47.66307,64.76766-70.98649,4.06312-4.3175,11.044-5.88889,16.67825-8.72772-27.05632,28.68618-38.90676,64.02509-44.64342,102.0389Q310.21943,689.33607,297.67459,721.93268Z" transform="translate(4.6596)"/><path class="cls-1" d="M849.9355,789.97719c-25.8206-10.95443-43.76182-30.82485-59.90337-52.78308-3.39248-4.61522-7.22407-8.90762-10.85519-13.34741q-9.49476-24.18425-18.98753-48.37159c-8.81221-41.23612-16.17348-83.02213-44.4-116.8801,2.60154.11094,6.37908-.86267,7.62615.49251q25.6073,27.82765,50.57119,56.24622c24.67484,28.06541,52.6305,51.54843,88.27771,64.56592A186.31694,186.31694,0,0,0,952.30837,695.772c8.78327-.61424,17.46637-2.66226,26.19544-4.05263-2.065,4.08916-4.00226,8.24869-6.21521,12.25606-17.50779,31.70262-42.07523,56.10072-75.63434,70.24966C881.55208,780.59224,865.53651,784.79327,849.9355,789.97719Z" transform="translate(4.6596)"/><path class="cls-2" d="M849.9355,789.97719c15.601-5.18392,31.61658-9.385,46.71876-15.7521,33.55911-14.14894,58.12655-38.547,75.63434-70.24966,2.21295-4.00737,4.15023-8.1669,6.21492-12.25648q1.01192-.3505,2.05292-.60367c11.92335-4.23423,24.03356-8.02325,35.68111-12.91385,4.90245-2.05852,8.82824-6.4432,13.1981-9.77021l7.16874,2.21961c14.98372,6.041,29.96757,12.0819,48.05521,19.37429-8.09149,17.56064-14.11914,36.54584-24.70364,52.50983-32.16846,48.51786-78.68888,71.66152-136.7801,69.51738C897.21353,811.094,872.03831,804.98744,849.9355,789.97719Z" transform="translate(4.6596)"/><path class="cls-2" d="M99.8096,691.72611c7.90109,12.90116,14.40132,26.9717,23.99213,38.46241,20.58078,24.65732,47.317,41.24747,77.16942,52.88708,3.46,1.34922,6.62749,3.449,10.63145,5.57266-7.85654,13.39707-20.89957,12.61847-32.561,14.53745-4.45725.73349-9.85852-.85784-9.34579,6.56294q-2.42562.15972-4.85251.32553c-6.0573-9.3719-10.84654-2.57784-15.86887,1.246q-2.66886-.00171-5.33516.004-5.62863-.55341-11.26251-1.12144c-40.83341-1.76463-73.67123-20.25788-100.74515-49.54786C13.01263,740.512,1.10942,716.46032-4.65953,689.51735q16.61669-6.80238,33.23529-13.60229,3.0068-.59661,6.01445-1.18834,6.72866-2.26323,13.46035-4.53371,23.56368,9.54807,47.11835,19.09082Q97.48919,690.50494,99.8096,691.72611Z" transform="translate(4.6596)"/><path class="cls-3" d="M629.84428,1014.74316c-2.47925,7.663-6.12172,15.17113-7.16931,23.025-1.63581,12.26741-8.364,19.11877-19.24689,23.184-15.09962,5.64047-30.112,11.519-45.26923,16.99818-3.37787,1.221-7.20307,1.20451-12.73232,2.04965,2.88089-10.62181,5.24919-19.354,7.61763-28.0859a12.79449,12.79449,0,0,0,1.917-2.81875c29.45073-86.54387,86.16265-150.3177,164.26687-195.9846,13.67862-7.99771,28.33489-14.32365,45.14708-22.72443-1.74164,9.90975-2.78357,15.83766-3.82535,21.7655q-3.86676,4.42455-7.733,8.84995-8.126,5.92433-16.25292,11.84674-4.551,3.61246-9.10191,7.2245c-27.70568,20.5402-49.69442,46.47629-67.65692,75.48892-10.99919,17.76572-18.98087,37.39963-28.31772,56.19465l.16315.24643Q630.75028,1013.37627,629.84428,1014.74316Z" transform="translate(4.6596)"/><path class="cls-3" d="M531.4809,1039.97017c-4.32942,11.88618-8.65884,23.77223-13.48155,37.01232-21.846-6.48392-42.73267-13.92009-59.91572-29.34433,2.72994-5.09114,5.571-10.12624,8.17576-15.28052C503.45232,958.762,558.49864,902.247,629.81576,861.28324q13.48625,3.42721,26.97177,6.86074c2.61133.66936,5.19953,1.42824,7.79837,2.14612a381.18609,381.18609,0,0,0-80.90509,78.3769C562.26227,976.72425,540.61715,1004.818,531.4809,1039.97017Z" transform="translate(4.6596)"/><path class="cls-3" d="M402.21813,980.26542c24.54743-24.41223,47.63824-50.55063,74.00946-72.80126,33.27721-28.07768,69.93952-51.80252,111.15939-67.38452,4.13945.46563,8.49782,1.98758,12.36586,1.17521,8.38957-1.76193,13.08162,1.80109,16.30868,8.81668-4.961,2.85435-10.298,5.21329-14.82085,8.64515-25.81847,19.59028-52.31113,38.42134-76.904,59.46306-27.988,23.9466-50.90361,52.62695-69.07069,84.872-4.50308,8.0031-9.36807,15.829-13.39714,24.06406-3.3434,6.83378-7.09639,8.65175-13.06913,3.23246-12.15149-11.02487-24.30355-22.04889-36.96-33.53117C395.8287,990.45565,399.02342,985.36053,402.21813,980.26542Z" transform="translate(4.6596)"/><path class="cls-4" d="M299.31976,338.8242q1.45946,2.94615,2.91863,5.89585,3.42007,4.9554,6.84087,9.90386l-.055-.07215q.01661,8.11777.03278,16.2349c2.33127,27.9241,9.61932,53.62851,31.85322,72.93363,2.376,2.063,3.46924,5.60324,5.15754,8.45824-12.70055-.61659-25.41513-1.04349-38.09056-1.99567a16.9883,16.9883,0,0,1-8.23479-3.55025c-23.40648-17.45537-40.16475-39.58527-45.51524-68.805-2.73135-14.91555-3.26863-29.98709,6.004-43.5908,4.74369-6.95962,5.28466-14.31272.00241-21.46855q.04044-2.594.07874-5.18442,19.5405,15.56965,39.08552,31.1325Z" transform="translate(4.6596)"/><path class="cls-3" d="M399.65348,895.94642Q431.00581,878.3442,462.358,860.746c1.219,2.50762,1.7798,6.125,3.78008,7.3077,6.209,3.67071,12.96471,6.4166,19.50822,9.52137-25.05761,20.57539-50.51005,40.6965-74.9742,61.95487-9.48129,8.23889-16.72678,19.05067-24.99065,28.69-2.2172,2.58508-4.43455,5.1703-8.59528,10.02139-9.08418-14.32584-17.38607-26.92395-24.92354-39.96386-.88784-1.53592,1.69383-6.39794,3.90536-8.1898C370.4052,918.47115,385.08559,907.27816,399.65348,895.94642Z" transform="translate(4.6596)"/><path class="cls-3" d="M653.20947,1019.41223c12.32812-32.50031,28.28112-63.044,50.7169-89.73163,9.33189-11.10049,20.2532-20.86481,30.45137-31.23593q3.38561,5.233,6.77192,10.4649-1.41732,1.87188-2.82655,3.73993c-.51657.7325-1.04107,1.46911-1.56558,2.20557-9.47717,30.44215-28.90366,54.85522-48.72982,78.80522-10.33423,12.48376-22.46969,23.47642-33.7915,35.14271q-1.22622-.96872-2.45229-1.93757Q652.49663,1023.13889,653.20947,1019.41223Z" transform="translate(4.6596)"/><path class="cls-1" d="M313.28085,835.83733c2.30659-2.313,4.51726-6.53535,6.93394-6.65672,47.17091-2.36872,94.09907-.46563,140.41775,9.7141.95452.20983,1.69766,1.38185,2.87876,2.39639-8.56024,4.29643-16.48489,10.87739-25.1023,11.964-11.729,1.479-23.99157-1.17982-36.01693-2.16747-19.52411-1.60353-39.04154-3.29077-58.56125-4.94019q-14.00059-.52266-28.0012-1.05043-.9185-2.38168-1.83883-4.76349Z" transform="translate(4.6596)"/><path class="cls-1" d="M764.52748,819.26881c-32.00034,10.25719-61.30452,25.944-89.285,44.30492-3.51052,2.30353-7.10248,4.48271-10.65671,6.71793-2.5987-.71944-5.1869-1.47832-7.79823-2.14768q-13.47985-3.45542-26.97177-6.86074c34.02133-22.3935,71.25654-37.45461,110.29638-48.42273,5.11185-1.43633,10.14723-3.14449,15.2178-4.72588,3.7442-.61694,7.48881-1.23473,13.189-2.17514C766.98644,811.06985,765.757,815.1693,764.52748,819.26881Z" transform="translate(4.6596)"/><path class="cls-1" d="M343.86076,857.241c16.68435,2.11789,33.38191,4.13831,50.04456,6.41447,4.82286.65879,9.54541,2.05114,16.36571,3.56152-6.142,4.90657-10.7241,8.56705-15.3062,12.22555-10.23506,8.57727-21.37187,9.52059-34.07411,5.79087-11.81993-3.47066-24.18707-5.07795-36.3109-7.50555q-2.27877-9.44231-4.56266-18.88426Q331.939,858.04236,343.86076,857.241Z" transform="translate(4.6596)"/><path class="cls-3" d="M329.34295,893.11178c13.0663,2.55132,22.32271,4.35865,34.7605,6.78724-8.79135,7.15243-15.1141,12.2962-23.13082,18.81843C337.13565,910.26943,333.92292,903.19574,329.34295,893.11178Z" transform="translate(4.6596)"/><path class="cls-5" d="M299.39779,338.71638q-19.54389-15.56455-39.08552-31.1325c4.66935,1.36865,10.55371,1.414,13.77169,4.36595C283.11054,320.23029,291.03717,329.7098,299.39779,338.71638Z" transform="translate(4.6596)"/><path class="cls-1" d="M741.14966,908.90957q-3.386-5.23217-6.77192-10.465,1.15981-2.26175,2.31864-4.52137,5.5616-4.56862,11.124-9.1381,1.46116.84423,2.92218,1.6883Q745.94627,897.69147,741.14966,908.90957Z" transform="translate(4.6596)"/><path class="cls-5" d="M28.57576,675.91506Q11.95759,682.71554-4.6596,689.51735c1.27424-2.14251,2.134-5.67651,3.88969-6.19889C8.891,680.44388,18.77093,678.30585,28.57576,675.91506Z" transform="translate(4.6596)"/><path class="cls-3" d="M817.71909,312.72453q-2.03554,3.605-4.07192,7.2084-5.90422-.00979-11.80646-.01625,7.93955-5.58319,15.87781-11.16447Q817.71746,310.74038,817.71909,312.72453Z" transform="translate(4.6596)"/><path class="cls-1" d="M148.9744,811.32012c5.02233-3.82378,9.81157-10.61784,15.86887-1.24594Q156.9082,810.69634,148.9744,811.32012Z" transform="translate(4.6596)"/><path class="cls-5" d="M320.01716,858.84365q2.28261,9.442,4.56266,18.88419C319.33291,872.33259,314.57276,866.82022,320.01716,858.84365Z" transform="translate(4.6596)"/><path class="cls-1" d="M132.37673,810.20272q5.63267.56438,11.26251,1.12151Q138.00529,810.75614,132.37673,810.20272Z" transform="translate(4.6596)"/><path class="cls-5" d="M311.055,745.05789q-.84252,4.74334-1.68348,9.4876Q310.21489,749.80258,311.055,745.05789Z" transform="translate(4.6596)"/><path class="cls-5" d="M313.99079,840.33352q.92,2.38177,1.83883,4.76349Q314.90942,842.71522,313.99079,840.33352Z" transform="translate(4.6596)"/><path class="cls-1" d="M736.75753,914.85507c.52451-.73646,1.049-1.47307,1.56558-2.20557C737.7959,913.38739,737.27679,914.1213,736.75753,914.85507Z" transform="translate(4.6596)"/><path class="cls-5" d="M629.84428,1014.74316q.90465-1.36858,1.80619-2.74015Q630.74432,1013.3699,629.84428,1014.74316Z" transform="translate(4.6596)"/><path class="cls-6" d="M425.25673,484.56356q9.24045,3.71228,18.481,7.42447a1.83356,1.83356,0,0,0,.532,1.4923c11.67536,9.7839,23.97525,18.38805,39.49653,20.90624l.16726.066c.34518,3.09015.69093,6.1791.98844,8.83661-4.35382,1.462-7.75539,2.60438-11.1571,3.74674q-3.256-.3325-6.51271-.6651c-1.64631-1.305-3.26807-3.70262-4.941-3.73909-11.4312-.24842-23.16388-1.54358-34.22564.54189-10.0475,1.89437-19.36861,7.64076-29.01007,11.68891a1.28766,1.28766,0,0,1-1.18266.4435q-1.3375.56438-2.672,1.141a1.56707,1.56707,0,0,1-1.3407.58346q-1.62759.85007-3.2475,1.70681-1.26451,1.25292-2.52847,2.505-4.89762,3.03384-9.7961,6.06922-5.45073,3.6944-10.90088,7.38893c-5.63352,2.839-12.61442,4.41036-16.67754,8.72786-21.94845,23.32342-43.00479,47.484-64.76766,70.98649-5.446,5.88152-12.36274,10.40119-18.60519,15.54539-5.44937-3.08866-8.92429-2.25466-9.32451,4.68985l-.01164-.03646c-5.19556,1.29659-10.37026,2.6812-15.58866,3.87422-11.8388,2.70646-18.61413-3.0832-17.81963-14.6994a12.3265,12.3265,0,0,0-2.285-7.22457c-5.70432-8.21854-13.247-12.24846-24.83643-7.30154,4.8989-10.82227,8.7102-19.89155,13.06927-28.68936q6.64119-13.40378,14.1861-26.35448c6.56465-11.2408,12.021-23.69363,20.80154-32.91287,8.39751-8.817,9.70062-24.61688,25.19664-26.76066,1.215-.16812,2.084-2.83585,4.06951-5.73979-11.13808-3.31261-21.19225-6.30288-31.24657-9.29323q.47436-1.80869.94886-3.61743,5.44944-1.95381,10.899-3.90756.15132-1.82474.30276-3.64949c-3.78859-.74136-9.59918-3.41653-11.03891-1.91125-9.56343,9.999-19.07522,1.59367-28.52118.97893,23.73634-12.95591,49.59412-19.07408,76.14892-20.88666,37.12695-2.53429,73.92944-.02717,109.44173,12.94435C409.2101,482.18831,417.40161,482.91555,425.25673,484.56356Z" transform="translate(4.6596)"/><path class="cls-7" d="M216.15788,487.40515c9.446.61474,18.95775,9.02005,28.52118-.97893,1.43973-1.50528,7.25032,1.16989,11.03891,1.91125q-.15131,1.82475-.30276,3.64949-5.44944,1.95372-10.899,3.90756-.47436,1.80868-.94886,3.61743c10.05432,2.99035,20.10849,5.98062,31.24657,9.29323-1.98552,2.90394-2.8545,5.57167-4.06951,5.73979-15.496,2.14378-16.79913,17.94363-25.19664,26.76066-8.78057,9.21924-14.23689,21.67207-20.80154,32.91287q-7.54371,12.917-14.1861,26.35448c-4.35907,8.79781-8.17037,17.86709-13.06927,28.68936,11.58939-4.94692,19.13211-.917,24.83643,7.30154a12.3265,12.3265,0,0,1,2.285,7.22457c-.7945,11.6162,5.98083,17.40586,17.81963,14.6994,5.2184-1.193,10.3931-2.57763,15.58866-3.87422-3.42582,3.53337-6.25166,8.157-10.37381,10.42616-34.9489,19.23894-71.625,32.90536-112.35865,31.00666-11.86746-.55323-23.65448-2.83307-35.47838-4.3209q-2.32049-1.22037-4.64069-2.44123-6.42816-20.02038-12.85682-40.04175s.77357-.56054.77612-.5504c.60105-.549,1.19947-1.1081,1.7979-1.66723,0,0,.54267-.4474.54529-.44059q.99723-1.082,1.9895-2.17776,1.17055-1.15226,2.343-2.30133,1.1545-1.01181,2.30545-2.03022s.328-.35369.33071-.34815q.9819-.9883,1.95871-1.9878c-.00014,0,.33752-.34227.34021-.33681q.93339-1.00287,1.861-2.0168s.29169-.35618.29524-.35029q1.33581-1.90562,2.66425-3.823l.22473-.28843q.90848-1.12555,1.81768-2.25587l.26446-.32765q.82782-1.3106,1.653-2.62864c19.13182-31.76271,36.95642-64.42042,57.86847-94.96422C174.64235,511.32982,193.63755,496.48507,216.15788,487.40515Z" transform="translate(4.6596)"/><path class="cls-7" d="M258.03222,654.65016c.40022-6.94458,3.87514-7.77858,9.32451-4.68992Q262.69619,652.30658,258.03222,654.65016Z" transform="translate(4.6596)"/><path class="cls-6" d="M593.62276,513.16823q26.21531-13.186,52.43088-26.37236,2.0317-.038,4.06327-.07448c16.29392-2.2714,32.65636-4.144,48.86034-6.93671,14.21433-2.44987,28.12988-7.6011,42.38919-8.63273,37.02183-2.67837,73.66527.09136,108.72385,13.88632,14.31123,5.6314,26.972,13.64805,37.551,24.97986-9.90477,5.848-20.01754,9.72176-27.03249,16.70685-4.58593,4.56606-7.93812,6.94046-14.18794,7.03055-9.72148.1401-12.51356,5.88181-7.56089,14.64861,3.03043,5.36411,6.64779,10.40254,9.57691,15.8168,13.89115,25.67661,27.40122,51.56283,41.59286,77.07081,3.70333,6.65622,1.74107,10.24166-2.95935,14.95336-2.8762,2.883-3.81527,7.69843-6.63856,13.8593-4.20911,1.50989-14.86624-1.83252-18.16736,9.79525-35.64721-13.01749-63.60287-36.50051-88.27771-64.56592q-24.97162-28.40277-50.57119-56.24622c-1.24707-1.35518-5.02461-.38157-7.62615-.49251q-6.31026-4.66321-12.62322-9.3209c-25.56409-21.0811-55.27389-25.87522-87.14214-22.19587q-2.38562.15237-4.77094.30432-11.61009,2.03181-23.22119,4.06433-2.333.34549-4.66552.69085-3.46392.86422-6.92855,1.72874-4.2726,1.31644-8.5408,2.63034c2.17606-2.94615,3.89543-6.4232,6.611-8.72467C580.61733,522.59467,587.22056,518,593.62276,513.16823Z" transform="translate(4.6596)"/><path class="cls-7" d="M862.26448,679.89966c3.30112-11.62777,13.95825-8.28536,18.16736-9.79525,2.82329-6.16087,3.76236-10.97635,6.63856-13.8593,4.70042-4.7117,6.66268-8.29714,2.95935-14.95336-14.19164-25.508-27.70171-51.3942-41.59286-77.07081-2.92912-5.41426-6.54648-10.45269-9.57691-15.8168-4.95267-8.7668-2.16059-14.50851,7.56089-14.64861,6.24982-.09009,9.602-2.46449,14.18794-7.03055,7.01495-6.98509,17.12772-10.85888,27.03249-16.70685-10.579-11.33181-23.23978-19.34846-37.551-24.97986-35.05858-13.795-71.702-16.56469-108.72385-13.88632-14.25931,1.03163-28.17486,6.18286-42.38919,8.63273-16.204,2.79272-32.56642,4.66531-48.86034,6.93671,39.33408-15.67053,80.31433-21.53055,122.46985-21.23021,74.10395.52813,129.90064,32.31048,166.69618,96.81574,6.68154,11.71325,12.69118,23.80983,19.0074,35.73q.79208,1.37943,1.59125,2.75788a2.7232,2.7232,0,0,1,.84273,1.80925c.85962,3.99509.68015,8.67608,2.77562,11.85958,7.46711,11.34366,16.09771,21.92723,23.43727,33.34531,2.46662,3.83719,4.09051,9.68395,3.14123,13.95456-2.22217,9.99544-6.2345,19.59306-9.522,29.3517q-1.04086.25358-2.05292.60375c-8.72878,1.39079-17.41188,3.43881-26.19515,4.05305A186.31694,186.31694,0,0,1,862.26448,679.89966Z" transform="translate(4.6596)"/><path class="cls-4" d="M980.55644,691.11528c3.2875-9.75872,7.29983-19.35634,9.522-29.35178.94928-4.27061-.67461-10.11737-3.14123-13.95456-7.33956-11.41808-15.97016-22.00165-23.43727-33.34531-2.09547-3.1835-1.916-7.86449-2.77562-11.85958,11.26039,14.46708,21.28746,30.17038,34.17769,42.99627,9.59024,9.54229,22.88963,15.35713,34.5352,22.83154-4.37142,3.32637-8.29721,7.71105-13.19966,9.76957C1004.59,683.092,992.47979,686.88105,980.55644,691.11528Z" transform="translate(4.6596)"/><path class="cls-4" d="M82.31223,649.24257q6.42848,20.02113,12.85682,40.04182Q71.61186,679.73952,48.05056,670.193,65.17682,659.71527,82.31223,649.24257Z" transform="translate(4.6596)"/><path class="cls-1" d="M485.64631,877.5749c-6.54351-3.10463-13.29925-5.85052-19.50822-9.52123-2.00028-1.18266-2.5611-4.80008-3.78008-7.3077,18.78834-8.73013,37.20739-18.40408,56.47229-25.90552,17.88816-6.9655,36.67906-11.61258,55.07271-17.28214q3.864,4.79591,7.72773,9.59556Q533.63853,852.36428,485.64631,877.5749Z" transform="translate(4.6596)"/><path class="cls-1" d="M708.74654,809.98033q-46.34379,20.04432-92.68615,40.08992c-3.22593-7.01431-7.918-10.57733-16.30755-8.8154-3.868.81237-8.22641-.70958-12.36586-1.17521,27.7823-9.94777,55.53168-19.9964,83.37824-29.76853,7.20974-2.5301,14.72352-4.19421,22.09613-6.26053q6.80037-.50415,13.60357-.99943Q707.6058,806.5157,708.74654,809.98033Z" transform="translate(4.6596)"/><path class="cls-2" d="M581.63074,827.15394q-3.86379-4.79877-7.72773-9.59563,36.65643-7.96476,73.31329-15.93321.39028,1.50574.78044,3.01141Q614.81382,815.89517,581.63074,827.15394Z" transform="translate(4.6596)"/><path class="cls-8" d="M594.95794,798.30376q3.54031-.801,7.08106-1.60062Q598.49869,797.5048,594.95794,798.30376Z" transform="translate(4.6596)"/><path class="cls-8" d="M310.32193,810.07815q1.7227,3.2939,3.44555,6.58593Q312.04478,813.36935,310.32193,810.07815Z" transform="translate(4.6596)"/><path class="cls-8" d="M329.78021,815.45077q2.45029-.16131,4.9006-.32212Q332.23073,815.29028,329.78021,815.45077Z" transform="translate(4.6596)"/><path class="cls-8" d="M585.69131,800.36391q1.56628-.64927,3.13768-1.29729Q587.265,799.71654,585.69131,800.36391Z" transform="translate(4.6596)"/><path class="cls-9" d="M583.46857,498.73753q-2.39391,1.20537-4.78782,2.41129c-10.0038-2.48769-1.86379-6.01928-.10527-8.14881,11.51562-13.94484,23.89027-27.20784,34.96026-41.48751,24.447-31.53571,39.2274-67.82582,50.5153-105.76209,7.84846-26.37654,10.84086-53.286,10.223-80.705-.30432-13.50844-.4042-27.0215-.59473-40.53278,1.648-3.915,4.2599-7.71637,4.73532-11.76839.9358-7.97636-.7149-16.43636,1.168-24.09021,8.14753-33.11788,19.13169-65.10773,39.9284-92.93833,8.94159-11.96574,8.8864-12.34259,22.40442-5.00616,1.84564,1.00163,4.42561.6501,6.66566.92513l.09349-.0104c.95226,3.56923-.0095,10.22258,6.86,4.26519,22.74137,15.00844,33.39212,37.70133,39.27166,63.06631,6.59543,28.45375,1.44172,55.55178-13.25258,80.31468-12.4297,20.94685-16.07345,43.7486-19.1792,67.2014-3.07115,23.19253-11.58911,44.49886-27.38874,62.3502-.39923-1.94318-.91367-3.87011-1.17088-5.83066-.53785-4.1.58423-9.52342-1.64035-12.12042-16.8041-19.617-28.75952-41.91278-38.3753-65.65905-.66056-1.63113-2.06739-2.96013-4.80342-6.7544-3.23359,7.047-7.263,12.14383-7.79455,17.58256-3.5633,36.45837-13.00316,71.23405-30.06476,103.56141-11.79836,22.35541-25.40463,43.75679-38.63493,66.32118,2.62708,5.15818,5.89458,5.08135,11.91059.72391,3.73639-2.70638,7.72432-11.89817,15.01876-4.1059q-15.50964,10.9689-31.02212,21.93575-11.39388,6.22131-22.78124,12.44453Q584.54887,497.82727,583.46857,498.73753Z" transform="translate(4.6596)"/><path class="cls-8" d="M578.98961,50.03194q1.004,1.13151,2.00809,2.26423,5.90017,8.14905,11.80021,16.2957l-.07278-.04853c1.768,5.318,2.83449,11.00948,5.43334,15.884,8.78042,16.46846,18.75869,32.32888,26.90636,49.08911,3.3783,6.94908,3.28509,15.58565,4.77065,23.45482-9.56116,9.95479-18.56788,20.52588-28.80081,29.73413-20.29845,18.26568-44.25157,29.161-71.82517,25.181-33.29423-4.80569-57.44072-24.75655-76.03059-52.06658-1.53507-2.25526-4.61771-3.45707-6.98146-5.14828,1.036-5.18985.99751-10.92492,3.30424-15.46995,7.75382-15.27893,16.62576-29.9879,24.49025-45.21437,3.78321-7.3248,6.26869-15.31981,9.34182-23.01132l-.03121.03295q3.5118-4.66424,7.02289-9.3286l-.0444.0486q3.48711-4.70094,6.97338-9.4018l-.06555.05973c3.96864-3.20369,8.26-6.08405,11.8449-9.67069C521.14511,30.599,528.07125,10.73279,551.0287,15.17748q2.18238,2.37492,4.36475,4.74972C559.13069,33.19776,566.78861,43.39522,578.98961,50.03194Z" transform="translate(4.6596)"/><path class="cls-10" d="M748.58115,91.63458c-2.24-.275-4.82.07654-6.66566-.92509-13.518-7.33643-13.46283-6.95958-22.40442,5.00616-20.79671,27.8306-31.78087,59.82045-39.9284,92.93833-1.88294,7.65385-.23224,16.11385-1.168,24.09021-.47542,4.052-3.08732,7.85339-4.73518,11.76839-9.87981-31.8922-18.71826-64.16015-30.0476-95.52841-6.23549-17.26452-16.14708-33.314-25.43527-49.3109-4.03674-6.95242-4.83648-11.85405.12584-18.60228C637.48673,35.00913,662.63315,16.56189,692.39771,0c1.261,6.43139,2.11477,11.077,3.08731,15.69759,5.92125,28.13421,21.18318,50.13416,43.987,67.269C742.80022,85.46743,745.559,88.72638,748.58115,91.63458Z" transform="translate(4.6596)"/><path class="cls-1" d="M483.33376,70.97588c-3.07313,7.69151-5.55861,15.68652-9.34182,23.01132-7.86449,15.22647-16.73643,29.93544-24.49025,45.21437-2.30673,4.545-2.26828,10.2801-3.30467,15.47041-5.45377,13.74959-13.22377,27.06438-15.89937,41.33433a388.18053,388.18053,0,0,0-5.78817,104.51275c3.469,41.635,15.20717,79.918,34.32892,116.39829,5.48144,10.4571,12.0736,20.38174,18.72919,30.16053,7.84377,11.52441,16.30981,22.62525,24.50586,33.90975q1.71419-.58991,3.42823-1.17982c.34036-3.15194,1.25162-6.36517.92091-9.44511-1.35263-12.60378-2.76839-25.2165-4.73249-37.73623-7.06645-45.03812,5.25061-85.91331,26.46372-124.90214,3.07043-5.64338,16.18908-6.77589,19.029-.90785,9.49788,19.626,21.16147,39.04055,25.92757,59.92111a223.44149,223.44149,0,0,1,1.46783,92.83384c-.56849,2.90777,2.68056,6.5618,4.15719,9.86945,3.00119-1.6705,7.18037-2.58459,8.816-5.13193,12.58222-19.59611,26.4396-38.65352,36.52626-59.51046,18.21887-37.67338,29.13861-77.73087,28.89132-120.03686-.1352-23.14522-.27452-46.4006-2.57188-69.39051-2.07689-20.78376-6.59543-41.45126-20.56163-58.3999-1.48556-7.86917-1.39235-16.50574-4.77065-23.45482-8.14767-16.76023-18.12594-32.62065-26.90636-49.08911-2.59885-4.87447-3.66531-10.56591-5.43334-15.88395,6.27025,9.18016,13.21242,17.97871,18.69017,27.61,21.47756,37.76276,38.87256,77.229,46.18091,120.40357,13.35,78.866-1.55182,152.60506-43.96073,219.98355-16.3738,26.01468-37.2833,49.17452-56.12669,73.63391q-2.2228,1.22367-4.4442,2.44946l.101.108c4.62481-15.062,10.37779-29.882,13.66912-45.22993,11.228-52.35994,6.13405-102.83935-20.05329-150.32756-1.78676-3.24025-4.32928-6.06376-7.71524-10.72644-3.6856,5.29785-6.89578,8.97558-9.07553,13.1866-31.0102,59.90394-32.384,121.06439-7.52669,183.30449,1.24736,3.1235,1.78549,6.53038,2.65389,9.80526l.10981-.12031q-3.436-1.36231-6.87151-2.72618c-5.0666-6.65431-9.76148-13.63294-15.26066-19.90667-36.80177-41.98655-63.896-89.23989-77.81011-143.55074C407.12583,275.5576,413.031,206.55966,444.36472,140.446,455.70909,116.50953,470.25087,94.08839,483.33376,70.97588Z" transform="translate(4.6596)"/><path class="cls-11" d="M639.431,462.54063c-7.29444-7.79227-11.28237,1.39952-15.01876,4.1059-6.016,4.35744-9.28351,4.43427-11.91059-.72391,13.2303-22.56439,26.83657-43.96577,38.63493-66.32118,17.0616-32.32736,26.50146-67.103,30.06476-103.56141.5316-5.43873,4.561-10.53555,7.79455-17.58256,2.736,3.79427,4.14286,5.12327,4.80342,6.7544,9.61578,23.74627,21.5712,46.042,38.3753,65.65905,2.22458,2.597,1.1025,8.02041,1.64035,12.12042.25721,1.96055.77165,3.88748,1.17088,5.83059q-3.49776,4.69683-6.99963,9.39027-2.47457,3.51063-4.94515,7.02431-1.04383,1.10183-2.08909,2.2028c-10.599,4.5001-19.249,10.76255-21.02854,23.24092l-.02184.12009c-3.66063,1.5089-8.00921,2.22054-10.85349,4.67517-10.36658,8.94713-20.3308,18.37273-30.18791,27.886-1.69553,1.63659-2.12995,4.57969-3.147,6.91926l-.08357-.03064q-4.55649,3.71194-9.10957,7.42872Q642.9754,460.10966,639.431,462.54063Z" transform="translate(4.6596)"/><path class="cls-4" d="M801.84071,319.91668q5.90274.00723,11.80646.01625-.00405,3.30995-.01121,6.61876.19515,1.19633.39285,2.388c18.02166,30.70688,14.09459,63.99211-11.46681,93.40957-5.76036,6.62947-12.60889,12.31329-18.95845,18.43174q-3.49818,2.469-6.99254,4.93927l-.03518-.08952q-3.74973,3.011-7.4942,6.02779-6.80206-.09822-13.60556-.1943-2.4818.01426-4.96061.02455-4.56437.16609-9.1293.3339-3.624-1.12695-7.24634-2.25686c17.06415-17.70259,28.9231-38.12419,32.76816-62.73184,1.17089-16.92682,3.15315-33.51832,16.79105-45.95895,1.14066-1.04072.98418-3.5035,1.43037-5.30551l.09165.22792q1.206-1.21537,2.40845-2.43073l-.08385.10364q1.235-1.19206,2.46648-2.38426l-.09335.11258q1.24919-1.17919,2.49641-2.35773l-.10286.10435q1.223-1.20409,2.44576-2.40668l-.10045.10314q1.2343-1.19865,2.46832-2.396l-.11378.1174q1.24771-1.302,2.49485-2.603Q800.67388,320.8384,801.84071,319.91668Z" transform="translate(4.6596)"/><path class="cls-3" d="M734.13982,449.56585q3.62289,1.12917,7.24634,2.25686c-33.31494,5.75553-66.67047,11.36288-97.62265,25.99489q-4.702.19387-9.40481.38888c15.04231-10.27869,29.59133-21.39173,45.23674-30.653,27.188-16.094,52.8277-33.87641,71.42906-59.87507,5.01935-7.01551,7.55038-15.81148,11.22364-23.79018l.019-.02589q11.43409-14.14287,22.86523-28.28935c-.44917,1.79854-.29269,4.26132-1.43335,5.302-13.6379,12.44063-15.62016,29.03213-16.79077,45.96306-3.20152,1.67532-7.01253,2.7198-9.49447,5.13186-8.48931,8.25025-16.11885,17.409-24.82664,25.40407-8.15306,7.48561-17.40494,13.76218-25.84331,20.95766-2.06426,1.76016-2.8396,5.03191-4.20769,7.60862,2.84869,1.39285,5.64176,3.82095,8.55684,3.97744C718.74694,450.32885,726.454,449.75021,734.13982,449.56585Z" transform="translate(4.6596)"/><path class="cls-1" d="M551.02884,15.17745c-22.95759-4.44466-29.88373,15.42157-41.99507,27.53862-3.58486,3.58664-7.87626,6.467-11.8449,9.67072,13.2303-17.21762,26.46145-34.435,40.11652-52.204,4.72695,3.833,7.64374,6.19829,10.55711,8.56642Q549.442,11.96617,551.02884,15.17745Z" transform="translate(4.6596)"/><path class="cls-9" d="M655.71312,450.28075c1.01709-2.33957,1.45151-5.28267,3.147-6.91926,9.85711-9.51327,19.82133-18.93887,30.18791-27.886,2.84428-2.45463,7.19286-3.16627,10.85349-4.67517-4.02482,4.88961-7.45079,10.48483-12.20257,14.518C677.39668,434.0628,666.41622,442.00852,655.71312,450.28075Z" transform="translate(4.6596)"/><path class="cls-1" d="M578.98961,50.03194c-12.201-6.63672-19.85892-16.83418-23.59616-30.10474Q567.19146,34.97967,578.98961,50.03194Z" transform="translate(4.6596)"/><path class="cls-9" d="M699.9234,410.68023c1.77953-12.47837,10.42957-18.74082,21.02854-23.24085Q710.43929,399.06066,699.9234,410.68023Z" transform="translate(4.6596)"/><path class="cls-1" d="M592.79791,68.59187q-5.90017-8.14725-11.80021-16.2957Q586.89788,60.44278,592.79791,68.59187Z" transform="translate(4.6596)"/><path class="cls-9" d="M646.52,457.67883q4.55394-3.71558,9.10957-7.42865Q651.07647,453.96691,646.52,457.67883Z" transform="translate(4.6596)"/><path class="cls-10" d="M755.53467,95.88945c-6.86953,5.95735-5.90777-.696-6.86-4.26519Q752.10792,93.75375,755.53467,95.88945Z" transform="translate(4.6596)"/><path class="cls-9" d="M723.041,385.23665q2.47158-3.51307,4.94529-7.02438Q725.5156,381.726,723.041,385.23665Z" transform="translate(4.6596)"/><path class="cls-3" d="M787.6295,333.36674q-1.20345,1.21536-2.40845,2.43073Q786.42344,334.58209,787.6295,333.36674Z" transform="translate(4.6596)"/><path class="cls-3" d="M790.01213,331.08612q-1.23238,1.19217-2.46648,2.38426Q788.77719,332.27811,790.01213,331.08612Z" transform="translate(4.6596)"/><path class="cls-3" d="M792.41519,328.841q-1.24772,1.17865-2.49641,2.35773Q791.16606,330.02015,792.41519,328.841Z" transform="translate(4.6596)"/><path class="cls-3" d="M794.75809,326.53864q-1.22282,1.20291-2.44562,2.40675Q793.53529,327.74269,794.75809,326.53864Z" transform="translate(4.6596)"/><path class="cls-3" d="M797.126,324.24582q-1.23408,1.19759-2.46832,2.396Q795.89195,325.4444,797.126,324.24582Z" transform="translate(4.6596)"/><path class="cls-3" d="M799.507,321.76019q-1.24728,1.30123-2.49485,2.603Q798.259,323.062,799.507,321.76019Z" transform="translate(4.6596)"/><path class="cls-9" d="M404.94963,208.34975c-4.24941,38.796-4.08086,77.44543,3.86762,115.83315,7.23542,34.94486,20.01655,67.78808,37.41581,98.894,1.85755,3.32084,3.30282,6.87208,4.93777,10.318-3.5311-3.67985-8.21009-6.78944-10.37863-11.148-6.99921-14.06743-12.94159-28.65574-19.532-42.93215-15.32181-33.19-24.07826-67.8322-24.07584-104.56666.00028-3.5096-1.94453-7.01938-3.815-13.321-2.9358,4.94-4.30388,6.69446-5.10391,8.67807-4.88769,12.12084-8.63728,24.82373-14.67826,36.32863-9.76915,18.605-18.66038,38.18334-37.1681,50.48529q-4.67886-8.86145-9.35416-17.72905c-1.45449-5.52215-3.12477-10.992-4.33666-16.5617-7.23131-33.23366-11.81213-66.78294-27.97468-97.99355-12.86767-24.84781-12.2779-52.66422-1.69-79.49217,4.19351-10.62514,7.49364-21.60294,11.20051-32.42018q3.33135-3.56032,6.66609-7.11834c3.14846-.98836,6.68069-1.37121,9.36693-3.08228,8.39226-5.34552,16.15432-11.76056,24.8438-16.51191,2.72682-1.49106,9.28593-.41058,11.18363,1.8905,4.77476,5.78955,8.23819,12.7746,11.61067,19.58568,11.8571,23.94631,21.94333,48.35141,25.31014,75.37372C394.3474,191.70526,400.89331,199.8724,404.94963,208.34975Z" transform="translate(4.6596)"/><path class="cls-10" d="M404.94963,208.34972c-4.05632-8.47732-10.60223-16.64446-11.70431-25.48986-3.36681-27.02231-13.453-51.42741-25.31014-75.37372-3.37248-6.81108-6.83591-13.79613-11.61067-19.58568-1.8977-2.30108-8.45681-3.38156-11.18363-1.8905-8.68948,4.75135-16.45154,11.16639-24.8438,16.51191-2.68624,1.71107-6.21847,2.09392-9.36693,3.08231,4.5201-4.11891,8.54137-9.04183,13.64811-12.22182,33.79562-21.04517,54.42988-50.622,59.65836-92.45263,34.36169,15.719,60.56635,38.65849,80.99192,70.60885-24.85232,37.33519-41.6113,78.59181-54.086,121.72531C409.64125,198.45533,407.04056,203.32884,404.94963,208.34972Z" transform="translate(4.6596)"/><path class="cls-11" d="M336.41905,356.91921c18.50772-12.302,27.39895-31.88032,37.1681-50.48536,6.041-11.5049,9.79057-24.20779,14.67826-36.32863.8-1.98361,2.16811-3.73806,5.10391-8.67807,1.87046,6.30165,3.81527,9.81143,3.815,13.321-.00242,36.73446,8.754,71.37663,24.07584,104.56666,6.59046,14.27641,12.53284,28.86472,19.532,42.93215,2.16854,4.35857,6.84753,7.46816,10.37863,11.148q3.52627,5.582,7.04758,11.171,1.07682,1.41626,2.15691,2.82514,13.2296,17.13456,26.45138,34.272-4.16834,4.0333-8.32147,8.06106-8.06766-4.65162-16.13545-9.30316-2.42178-1.25952-4.84513-2.51869c-11.49646-8.6931-23.70811-16.59675-34.33857-26.2431-22.63369-20.53843-45.05245-41.39523-66.29776-63.34254C348.3573,379.504,343.14287,367.48108,336.41905,356.91921Z" transform="translate(4.6596)"/><path class="cls-10" d="M304.26406,112.72249c-3.70687,10.81724-7.007,21.795-11.20051,32.42018-10.5879,26.82795-11.17767,54.64436,1.69,79.49217,16.16255,31.21061,20.74337,64.75989,27.97468,97.99355,1.21189,5.56968,2.88217,11.03955,4.33666,16.5617-12.90655-6.48462-11.03438-20.22531-12.4063-30.52308-4.13917-31.06759-15.6291-59.2205-26.74378-88.13966C273.40538,182.77541,277.43786,145.41184,304.26406,112.72249Z" transform="translate(4.6596)"/><path class="cls-3" d="M441.49078,480.00281q-5.67991-1.17513-11.35969-2.35092-15.22874-6.86112-30.45761-13.72139c-2.17634-4.30928-3.4969-9.4505-6.70793-12.75453-6.72965-6.92457-14.45453-12.88214-21.77068-19.23681l.68312-.7254c22.308,14.28329,44.65435,28.5077,66.84044,42.9779C440.25322,475.19258,440.59442,478.02311,441.49078,480.00281Z" transform="translate(4.6596)"/><path class="cls-3" d="M309.057,370.78666q-.01619-8.11723-.03278-16.2349c10.49881,19.4038,19.21241,40.002,36.76149,54.67376,8.72595,7.29537,17.39656,14.65692,26.09229,21.98839l-.67986.72164c-24.63383-10.82448-41.13644-29.99461-54.4086-52.6173C314.88843,376.07756,311.66732,373.6113,309.057,370.78666Z" transform="translate(4.6596)"/><path class="cls-2" d="M478.50523,489.72422q4.15683-4.02915,8.32147-8.06106,9.87951,12.053,19.74372,24.11145-9.2726-4.66-18.54518-9.32025Q483.2651,493.089,478.50523,489.72422Z" transform="translate(4.6596)"/><path class="cls-1" d="M490.32544,61.68027q-3.51116,4.66428-7.02289,9.32856Q486.81372,66.34445,490.32544,61.68027Z" transform="translate(4.6596)"/><path class="cls-1" d="M497.25428,52.327q-3.48627,4.70094-6.97338,9.4018Q493.76695,57.02785,497.25428,52.327Z" transform="translate(4.6596)"/><path class="cls-3" d="M309.07926,354.62391q-3.42072-4.9502-6.84087-9.90386Q305.65911,349.66843,309.07926,354.62391Z" transform="translate(4.6596)"/><path class="cls-2" d="M511.30347,509.2269q-2.38263-1.746-4.76526-3.49215Q508.92084,507.48075,511.30347,509.2269Z" transform="translate(4.6596)"/><path class="cls-9" d="M460.37532,447.39114q-1.07937-1.41073-2.15691-2.82514Q459.29843,445.97482,460.37532,447.39114Z" transform="translate(4.6596)"/><path class="cls-2" d="M706.46492,803.05115q10.46943-1.19643,20.93915-2.394,2.219.3986,4.43739.79946.33221,1.01275.66454,2.02567-11.87931,3.25016-23.759,6.4991Q707.60566,806.51514,706.46492,803.05115Z" transform="translate(4.6596)"/><path class="cls-7" d="M309.057,370.78666c2.61033,2.82464,5.83144,5.2909,7.73254,8.53159,13.27216,22.62269,29.77477,41.79282,54.4086,52.6173,7.31289,6.35828,15.03777,12.31585,21.76742,19.24042,3.211,3.304,4.53159,8.44525,6.70793,12.75453q-4.49923-.47181-8.99834-.943-2.91381-1.53352-5.82619-3.06909-19.38855-3.86954-38.77922-7.73957c-1.69028-2.85535-2.78356-6.3956-5.15952-8.45859C318.67631,424.41517,311.38826,398.71076,309.057,370.78666Z" transform="translate(4.6596)"/><path class="cls-3" d="M769.08163,451.65856q3.74568-3.01532,7.4942-6.02779Q772.83143,448.64757,769.08163,451.65856Z" transform="translate(4.6596)"/><path class="cls-3" d="M776.611,445.72029q3.49542-2.47,6.99254-4.93927Q780.1092,443.25132,776.611,445.72029Z" transform="translate(4.6596)"/><path class="cls-3" d="M750.51546,451.48881q2.47946-.01128,4.96061-.02455Q752.99726,451.47448,750.51546,451.48881Z" transform="translate(4.6596)"/><path class="cls-3" d="M814.02881,328.93971q-.19707-1.1928-.39271-2.388Q813.8338,327.74332,814.02881,328.93971Z" transform="translate(4.6596)"/><path class="cls-4" d="M959.88159,600.7948q-.7974-1.37869-1.59125-2.75788Q959.08944,599.41529,959.88159,600.7948Z" transform="translate(4.6596)"/><path class="cls-3" d="M384.849,459.91845q2.91273,1.535,5.82619,3.06909Q387.76282,461.45189,384.849,459.91845Z" transform="translate(4.6596)"/><path class="cls-4" d="M99.51961,631.21219q-1.33029,1.91444-2.66425,3.823Q98.18394,633.11777,99.51961,631.21219Z" transform="translate(4.6596)"/><path class="cls-4" d="M94.35895,637.73909q-.97807.99681-1.95871,1.9878Q93.37683,638.72741,94.35895,637.73909Z" transform="translate(4.6596)"/><path class="cls-4" d="M92.06953,640.075q-1.15173,1.01671-2.30545,2.03022Q90.915,641.087,92.06953,640.075Z" transform="translate(4.6596)"/><path class="cls-4" d="M87.421,644.40659q-.99339,1.09236-1.98949,2.17776Q86.42358,645.4886,87.421,644.40659Z" transform="translate(4.6596)"/><path class="cls-4" d="M84.88632,647.025c-.5985.55906-1.19692,1.11818-1.7979,1.66716C83.686,648.12972,84.28619,647.5774,84.88632,647.025Z" transform="translate(4.6596)"/><path class="cls-4" d="M103.47945,625.7116q-.82593,1.31613-1.653,2.62864Q102.65154,627.0223,103.47945,625.7116Z" transform="translate(4.6596)"/><path class="cls-4" d="M101.562,628.66789q-.90912,1.12918-1.81768,2.25587Q100.65367,629.7933,101.562,628.66789Z" transform="translate(4.6596)"/><path class="cls-4" d="M96.56012,635.38548q-.92913,1.01116-1.861,2.0168Q95.627,636.38846,96.56012,635.38548Z" transform="translate(4.6596)"/><path class="cls-8" d="M762.29112,733.51908a11.66507,11.66507,0,0,1-1.05086-1.58969c-.05135-.10811.471-.48933.72739-.74413Q762.12811,732.35253,762.29112,733.51908Z" transform="translate(4.6596)"/><path class="cls-4" d="M759.63383,721.7686q-.85975-1.61587-1.72051-3.23877Q758.77245,720.14241,759.63383,721.7686Z" transform="translate(4.6596)"/><path class="cls-8" d="M339.12586,661.08967q-.98085,1.28431-1.96027,2.56778Q338.14707,662.37249,339.12586,661.08967Z" transform="translate(4.6596)"/><path class="cls-5" d="M616.02407,527.07824c31.86825-3.67935,61.578,1.11477,87.14214,22.19587-2.16485-.434-4.816-.21047-6.42872-1.3976-21.194-15.6015-46.2981-16.25973-70.89987-18.938C622.53806,528.57927,619.29383,527.71086,616.02407,527.07824Z" transform="translate(4.6596)"/><path class="cls-3" d="M399.07548,534.86257c9.64146-4.04815,18.96257-9.79454,29.01007-11.68891,11.06176-2.08547,22.79444-.79031,34.22564-.54189,1.673.03647,3.29473,2.43413,4.941,3.73909C444.09062,525.69646,421.20751,527.26374,399.07548,534.86257Z" transform="translate(4.6596)"/><path class="cls-3" d="M473.76494,527.036c3.40171-1.14236,6.80328-2.28473,11.1571-3.74674-.29751-2.65751-.64326-5.74646-.98844-8.83661q2.03235.27835,4.0637.55919,3.51328,2.28027,7.02658,4.56061l.03178.03135q3.35943,2.52395,6.71971,5.04745,4.51264,4.16683,9.0253,8.33373-.3888,1.39381-.77775,2.78768-9.88441-2.14534-19.76841-4.291-2.345-.63694-4.69078-1.27318-3.49244-.41274-6.9843-.82627-2.37667-.43317-4.75405-.865A4.44088,4.44088,0,0,1,473.76494,527.036Z" transform="translate(4.6596)"/><path class="cls-3" d="M483.76634,514.38657c-15.52128-2.51819-27.82117-11.12234-39.49625-20.90539q7.88655,2.69642,15.77239,5.39106Q471.90435,506.6294,483.76634,514.38657Z" transform="translate(4.6596)"/><path class="cls-12" d="M762.70256,737.50971q-.15918,10.71864-.31695,21.436h0q.15727-10.71672.31439-21.43244-.20706-1.99341-.40888-3.99418a11.67371,11.67371,0,0,1-1.05086-1.58969c-.05135-.10811.471-.48933.72739-.74413q-1.16811-4.708-2.33382-9.41673-.85975-1.61588-1.72036-3.2387-5.67694-18.26128-11.35133-36.50895-.81463-2.26367-1.63835-4.52762c-.52011-1.4691-1.04945-2.93863-1.57736-4.40773-15.03791-36.88222-35.00736-70.85972-65.71878-96.58484-20.369-17.06189-41.20057-35.73021-71.12828-33.84542q-3.47647.05788-6.95309.11407-2.37369.8455-4.74767,1.688-3.42753.34708-6.85421.70028-3.4288.67356-6.85562,1.33958-3.56969.41178-7.14349.83861c-17.68159,1.38412-35.346,3.362-53.05285,3.8794-7.806.228-15.69862-2.511-23.55134-3.90408q-1.15875.01787-2.31864.03788-3.51308-1.04724-7.02644-2.09434-2.30517-.077-4.61033-.15422-3.5099-1.07128-7.01992-2.14258-2.29772-.11427-4.59529-.229c-15.25243-2.57884-27.85706,6.27238-41.72522,9.66714l.02014-.04186q-3.53691,2.29048-7.0734,4.58153l.02029-.01745q-3.47351,2.35092-6.94643,4.70269c-5.39177,5.25671-11.23683,10.12866-16.08664,15.845-15.049,17.73706-29.71845,35.796-44.53518,53.73016l-.00028.001q-3.30539,3.54117-6.61189,7.08319-3.74716,9.1998-7.49363,18.40018-1.36624,1.1645-2.72767,2.331a4.70088,4.70088,0,0,1,.51529,2.078q-.98085,1.28453-1.96041,2.56792a6.65474,6.65474,0,0,0-.4252,2.02737c-1.60686,3.41193-3.61395,6.6973-4.75291,10.26017-6.87,21.49119-13.54115,43.04579-20.27887,64.57925q-.32667,2.26686-.65347,4.53358-.84252,4.74335-1.68362,9.48767-.21792,2.24451-.43853,4.48775.17408,9.33431.347,18.668,3.35368-12.82632,6.70737-25.65277c6.738-25.16827,13.51277-50.327,20.15828-75.5197-6.64551,25.19267-13.42027,50.35143-20.15814,75.52041q-3.3539,12.82547-6.70751,25.65206.521,16.18851,1.04206,32.37687,1.7227,3.2939,3.44555,6.58593,8.00658-.60843,16.01273-1.21331,2.45029-.16131,4.9006-.32219,30.14676-.04172,60.29324-.08456,2.60354.06256,5.2089.09974c3.47378.05221,6.94955.08143,10.42446.11946-3.47491-.038-6.95068-.06725-10.42446-.11946q-2.60544-.03917-5.2089-.0996c25.05137,3.89657,50.39116,6.53017,75.04613,12.162,14.86923,3.39646,27.83238,1.91289,41.36714-3.55819,9.63295-3.89373,19.6332-6.89819,29.52848-10.11858,12.78311-4.16059,25.6251-8.14086,38.43786-12.20044q3.17259-.48073,6.33765-.965,1.56628-.64927,3.13768-1.29729,3.06936-.38029,6.129-.763,3.54031-.8008,7.08106-1.60048,16.20788-2.54584,32.415-5.09412c4.2067-.1257,8.41978-.144,12.61882-.39611,15.9669-.9585,31.92941-1.99247,47.89347-2.99836q13.85164-.2192,27.70313-.43484,17.49858.65332,34.99715,1.3007,4.61671.0083,9.23371.0156C772.125,771.36193,766.70978,754.49314,762.70256,737.50971ZM760.40661,780.695a18.737,18.737,0,0,1-3.78675,1.02887,18.737,18.737,0,0,0,3.78675-1.02887,9.01512,9.01512,0,0,0,2.90033-1.82493A9.01512,9.01512,0,0,1,760.40661,780.695Z" transform="translate(4.6596)"/><path class="cls-13" d="M416.04983,561.63175l.016-.01079.02043-.01943Z" transform="translate(4.6596)"/><path class="cls-14" d="M538.99426,661.08967A128.86657,128.86657,0,0,0,413.12879,817.70061c19.07465,2.683,38.18008,5.23145,56.89139,9.50554,14.86923,3.39646,27.83238,1.91289,41.36714-3.55819,9.63295-3.89373,19.6332-6.89819,29.52848-10.11858,12.78311-4.16059,25.6251-8.14086,38.43786-12.20044q3.17259-.48073,6.33765-.965,1.56628-.64927,3.13768-1.29729,3.06936-.38029,6.129-.763,3.54031-.8008,7.08106-1.60048,16.20788-2.54584,32.415-5.09412c4.2067-.1257,8.41978-.144,12.61882-.39611,6.93678-.4164,13.87157-.86628,20.80721-1.30268A128.88631,128.88631,0,0,0,538.99426,661.08967Z" transform="translate(4.6596)"/><path class="cls-5" d="M588.03194,531.44689q11.61074-2.03234,23.22119-4.06433Q599.64219,529.415,588.03194,531.44689Z" transform="translate(4.6596)"/><path class="cls-5" d="M378.308,547.31157q4.89827-3.035,9.7961-6.06922Q383.20563,544.27768,378.308,547.31157Z" transform="translate(4.6596)"/><path class="cls-5" d="M576.43787,533.86641q3.46456-.86433,6.92855-1.72867Q579.90164,533.00219,576.43787,533.86641Z" transform="translate(4.6596)"/><path class="cls-5" d="M423.01229,556.91827q-3.48159,2.35635-6.96246,4.71348Q419.53163,559.27572,423.01229,556.91827Z" transform="translate(4.6596)"/><path class="cls-5" d="M483.38569,545.10054q-3.5099-1.07139-7.01992-2.14258Q479.87567,544.02947,483.38569,545.10054Z" transform="translate(4.6596)"/><path class="cls-5" d="M495.02246,547.349q-3.51308-1.04724-7.02644-2.09434Q491.50931,546.302,495.02246,547.349Z" transform="translate(4.6596)"/><path class="cls-5" d="M495.02388,519.57241q-3.5133-2.28027-7.02658-4.56061Q491.51059,517.29218,495.02388,519.57241Z" transform="translate(4.6596)"/><path class="cls-5" d="M587.9444,545.15772q-3.4288.67354-6.85562,1.3395Q584.51865,545.81984,587.9444,545.15772Z" transform="translate(4.6596)"/><path class="cls-5" d="M501.77537,524.65121q-3.36007-2.52362-6.71971-5.04745Q498.41572,522.12727,501.77537,524.65121Z" transform="translate(4.6596)"/><path class="cls-5" d="M430.0654,552.35426q-3.53691,2.29049-7.0734,4.58146Q426.52912,554.64546,430.0654,552.35426Z" transform="translate(4.6596)"/><path class="cls-5" d="M473.82538,528.51727q2.37731.4321,4.75405.865Q476.20192,528.95048,473.82538,528.51727Z" transform="translate(4.6596)"/><path class="cls-5" d="M485.56373,530.20847q2.34561.63642,4.69078,1.27318Q487.90869,530.84545,485.56373,530.20847Z" transform="translate(4.6596)"/><path class="cls-5" d="M599.54628,542.76934q-2.37369.8455-4.74767,1.688Q597.17209,543.61037,599.54628,542.76934Z" transform="translate(4.6596)"/><path class="cls-1" d="M525.11786,512.74431q.50628.16077,1.01242.32162-.45074-.22131-.902-.44229Z" transform="translate(4.6596)"/><path class="cls-3" d="M395.22077,536.44709q1.33518-.57363,2.672-1.141Q396.55829,535.88279,395.22077,536.44709Z" transform="translate(4.6596)"/><path class="cls-5" d="M583.46857,498.7376q1.07981-.90933,2.159-1.81676Q584.5476,497.83113,583.46857,498.7376Z" transform="translate(4.6596)"/><path class="cls-3" d="M390.63257,538.73729q1.62183-.855,3.2475-1.70674Q392.26015,537.88722,390.63257,538.73729Z" transform="translate(4.6596)"/><path class="cls-1" d="M553.06459,512.62386q-.26728.4486-.5343.89721.31752-.39467.635-.78932Z" transform="translate(4.6596)"/><path class="cls-4" d="M629.83548,156.97122c13.9662,16.94864,18.48474,37.61614,20.56163,58.3999,2.29736,22.98991,2.43668,46.24529,2.57188,69.39051.24729,42.306-10.67245,82.36348-28.89132,120.03686-10.08666,20.85694-23.944,39.91435-36.52626,59.51046-1.63566,2.54734-5.81484,3.46143-8.816,5.13193-1.47663-3.30765-4.72568-6.96168-4.15719-9.86945a223.44149,223.44149,0,0,0-1.46783-92.83384c-4.7661-20.88056-16.42969-40.29507-25.92757-59.92111-2.83989-5.868-15.95854-4.73553-19.029.90785-21.21311,38.98883-33.53017,79.864-26.46372,124.90214,1.9641,12.51973,3.37986,25.13245,4.73249,37.73623.33071,3.07994-.58055,6.29317-.92091,9.44511q-1.714.5899-3.42823,1.17982c-8.196-11.2845-16.66209-22.38534-24.50586-33.90975-6.65559-9.77879-13.24775-19.70343-18.72919-30.16053-19.12175-36.48029-30.86-74.7633-34.32892-116.39829a388.18053,388.18053,0,0,1,5.78817-104.51275c2.6756-14.27,10.4456-27.58474,15.89937-41.33436,2.36418,1.69078,5.44682,2.89259,6.98189,5.14785,18.58987,27.31,42.73636,47.26089,76.03059,52.06658,27.5736,3.98,51.52672-6.91535,71.82517-25.181C611.2676,177.4971,620.27432,166.926,629.83548,156.97122Z" transform="translate(4.6596)"/><path class="cls-7" d="M734.13982,449.56585c-7.68587.18436-15.39288.763-23.04683.35192-2.91508-.15649-5.70815-2.58459-8.55684-3.97744,1.36809-2.57671,2.14343-5.84846,4.20769-7.60862,8.43837-7.19548,17.69025-13.472,25.84331-20.95766,8.70779-7.995,16.33733-17.15382,24.82664-25.40407,2.48194-2.41206,6.293-3.45654,9.49447-5.13186C763.06292,411.44166,751.204,431.86326,734.13982,449.56585Z" transform="translate(4.6596)"/></svg>