<svg id="Layer_1" data-name="Layer 1" xmlns="http://www.w3.org/2000/svg" viewBox="0 0 312.93381 543.45496"><defs><style>.cls-1{fill:#263135;}.cls-2{fill:#f5f6ee;}.cls-3{fill:#fdfdfd;}.cls-4{fill:#858643;}</style></defs><path class="cls-1" d="M572.04921,741.40983c-1.71491.37354-3.43817.07489-5.25012.49073-2.48838.57086-3.70946,2.39843-5.81531,3.81732-2.69453-2.96253-5.77848-5.224-10.2622-4.13867-3.97257,1.23614-5.80141,4.77435-7.65081,8.80615,0,2.33429-.08044,5.16662.032,7.99121.06185,1.555-.52274,3.16839.84776,4.69183.43925.48828-.52817,2.2439-.862,3.45563-2.99454-.39825-5.50713.256-8.09493-.95441-1.26163-.59015-3.30522.75244-5.00537.79438-5.14869.127-10.30263.04583-15.3962.04583l-1.49888-1.5c0-3.63232.00159-7.293-.00037-10.95367-.00366-6.9447-2.55443-10.40662-9.24428-12.54474-.589-.18829-1.205-.30817-1.769-.55157-.284-.12256-.47919-.45148-.81421-.78675-.64448-2.84515-.21023-5.869-.94345-8.92431-.94211-3.92572-3.07956-7.10828-4.703-10.57593a31.36753,31.36753,0,0,0-5.24836-7.298,24.423,24.423,0,0,0-5.56678-4.5877c-3.62547-2.17347-6.51383-5.20472-9.80221-7.73761-6.0533-4.66254-11.08258-10.32813-16.42052-15.68213a145.77208,145.77208,0,0,1-13.9219-16.65521c-2.53845-3.44526-5.02543-6.93558-7.47356-10.43943-5.61009-8.02926-9.89023-16.81515-14.4014-25.49188-4.79751-9.22748-7.7346-19.12524-11.54829-28.70416-.19132-5.24085-2.67446-9.97644-3.19836-15.20685-.42279-4.22165-1.26511-8.46744-2.0581-12.6405-.77628-4.08493.02714-8.23828-.95669-12.07675-1.344-5.24354-.28336-10.44794-.91509-15.60721-.35142-2.86985,1.14142-5.33747,1.07988-8.08942-.06324-2.83032-.555-5.80658.14553-8.45258.63819-2.41064.25567-4.89419.97541-7.079.79323-2.40765.45846-4.79724.93271-7.11209.99755-4.86908,2.45069-9.64261,3.59053-14.4851a183.11412,183.11412,0,0,1,6.28866-20.88062c1.11154-3.04364,2.21387-6.07931,3.618-8.9956.82892-1.72147,1.91563-3.34879,1.28268-5.51365a66.30867,66.30867,0,0,1-13.83352-23.5841c-.77518-2.18366-1.35629-4.43683-2.01309-6.662-1.02908-3.48618-2.04962-6.96423-2.01352-10.66464.052-5.32981-.13777-10.66574.04776-15.98957a68.277,68.277,0,0,1,5.86484-24.54155,85.06441,85.06441,0,0,1,17.71814-26.141,2.66827,2.66827,0,0,0,.36472-.84462l2.25217-1.17628c3.57747,4.07821,9.15474,4.25171,13.73929,6.6728-1.2545,1.25544-2.27492,2.34587-3.36762,3.35816a75.86713,75.86713,0,0,0-11.90386,13.96416,8.7674,8.7674,0,0,0-.72,2.18116c-.16644,0-.45383-.05482-.48219.00782-2.47661,5.46823-5.56446,10.57659-6.92179,16.64762-1.06811,4.77732-1.79688,9.58832-2.45838,14.38808a22.87208,22.87208,0,0,0,.65363,9.11536c.75926,2.81485.23707,6.0784,1.22992,9.01181,1.62941,4.81412,3.35627,9.59527,5.042,14.39032,2.56389,2.04535,3.48227,5.25192,5.52165,7.74957,8.0426,9.84973,11.91069,13.01151,21.46846,18.08606a44.31412,44.31412,0,0,0,21.12344,5.564c5.69132-.04407,11.43833.72357,17.05994-.93973,2.23649-.66181,4.5466-1.07111,6.81494-1.62924,3.94543-.97083,7.3156-3.22821,10.93681-4.92566,1.3902-.65168,2.83077-1.19587,4.24958-1.78955,2.02254,4.49655,3.9,8.67074,5.77829,12.84643-5.97236,4.84067-13.05955,6.72482-19.99726,8.8642-7.2759,2.24377-14.787,2.70376-22.37837,2.65689a69.24146,69.24146,0,0,1-21.77244-4.12692,67.64288,67.64288,0,0,1-19.62523-10.54221c-.11661,1.3602.077,2.28922-.288,2.86136-3.29827,5.17038-4.45573,11.15982-6.41137,16.82428-1.108,3.2092-3.0007,6.30032-2.54144,9.93951-.33313.262-.91125.48474-.96059.79242-.4018,2.50565.01525,5.49494-1.23193,7.41788-1.3627,2.101.45187,4.73407-1.788,6.27319-.00549,2.32065.70352,4.98261-.199,6.87473-1.10483,2.3161-.42156,4.4664-.81672,6.64178a52.267,52.267,0,0,1-.83354,9.615c-.858,3.91257.125,8.02161.72218,12.057.53055,3.58539-.692,7.55688.32989,10.9089,1.09391,3.58814.49792,7.20743,1.55079,10.7974a92.80506,92.80506,0,0,1,2.087,10.61969,68.27176,68.27176,0,0,0,3.284,12.17065c1.4776,4.03058,2.56108,8.213,4.43152,12.15616a45.97131,45.97131,0,0,1,3.32791,7.59082,42.697,42.697,0,0,0,5.45571,11.70889c4.689,7.42246,8.85212,15.19355,14.51563,22.03846,3.76167,4.54635,6.85483,9.65826,11.09941,13.84375a16.11937,16.11937,0,0,1,2.78376,2.85015c2.91573,4.91431,7.27827,8.54352,11.44394,12.15851,4.76738,4.13721,9.533,8.28363,14.46494,12.48468h3.27887v2.37555c1.06464.7638,2.09488,1.46735,3.08529,2.22321a31.97489,31.97489,0,0,0,2.99393,2.37793c6.27146,3.677,12.10287,8.03216,18.59109,11.41687,4.21354,2.19806,8.27625,4.81366,12.42825,7.201,4.401,2.53039,9.28045,4.129,13.40964,7.26635,1.33513,1.01447,3.60687.79444,5.45017,1.1391.08526,1.496,1.24108.84937,1.99851,1,.08526,1.496,1.24108.84937,1.99851,1,.08527,1.496,1.24108.84937,1.99852,1,.202,2.08753,2.11512.45215,3.05991,1.403.87332.87884,2.41154,1.10327,3.66543,1.59417C568.68612,739.1519,570.64114,739.79875,572.04921,741.40983Z" transform="translate(-404.05389 -289.62994)"/><path class="cls-1" d="M476.12059,339.40983c-.35429-.68289-.70858-1.36578-1.29146-2.48941,1.99065-1.18257,3.85029-3.062,5.93156-3.3528,3.66232-.51178,6.58037-2.6904,10.07929-3.52255,3.61889-.86066,7.24888-1.73158,10.85582-2.66609,2.56511-.6646,5.30306-.54919,7.74174-1.77988a4.00262,4.00262,0,0,1,1.41667-.1871c7.16684-.59943,14.32338-1.38266,21.53847-1.01607,1.82457.09271,3.66628-.09791,5.4853.03891,3.08108.2318,6.25627-.73811,9.24148.553,2.86127,1.23753,6.1965-.70454,8.891,1.422,4.02361-.16131,7.81291,1.04085,11.64514,1.99866a111.4649,111.4649,0,0,1,17.24,5.35747c2.10195.90533,4.20311,1.81245,6.98,3.01l-4.83747,2.63385c-4.02026,2.33335-8.0906,4.58506-12.04993,7.01766a129.72746,129.72746,0,0,0-20.30173,15.95025,52.05893,52.05893,0,0,0-7.99844,9.16768c-.95181,1.43842-3.11323,2.55463-2.61793,4.86441-1.23157,1.38092-2.94178,2.41841-3.03229,4.59645a2.87459,2.87459,0,0,1-.74377,1.64707c-3.30888,3.65689-5.07069,8.05282-6.2165,12.75648H532.079c0-.49424.17571-1.08058-.02732-1.46843-1.91532-3.65928-3.79533-7.34347-5.88521-10.903-2.02059-3.44159-3.19117-7.54849-7.0778-9.62853-.06374-2.222-1.29585-3.81654-2.78675-5.29753q-5.454-5.41791-10.86929-10.87488a57.1249,57.1249,0,0,0-7.90019-6.02182c-3.69025-2.61273-7.528-4.94764-11.31994-7.381A33.42258,33.42258,0,0,0,476.12059,339.40983Z" transform="translate(-404.05389 -289.62994)"/><path class="cls-1" d="M427.157,351.40983c-2.43246-1.93426-5.03349-3.69272-7.26547-5.836a50.72851,50.72851,0,0,1-13.40543-22.41556c-.44-1.46217-.21938-3.12338-.3613-5.75667,4.3837,6.83307,9.96969,10.99376,14.51715,16.04164.92156-.04814,1.70094-.08886,3.05766-.15976-9.41712-12.71209-13.17965-26.5339-12.45808-42.11927.87795.3509,1.68174.41125,1.88422.79191,3.45111,6.48865,8.035,12.10245,12.58091,17.852,3.81485,4.82494,8.72935,8.20134,12.98192,12.37949,3.64908,3.58523,8.29626,6.23356,12.73247,8.91435a138.938,138.938,0,0,0,15.15072,8.041c1.55694.6949,2.36164,2.98073,4.55252,2.26684.11728.284.15326.71181.36374.83106,4.84387,2.74327,9.7397,5.396,14.55777,8.18335,6.0461,3.49791,11.4551,7.91749,16.80958,12.34323,5.09081,4.20781,9.21659,9.40359,13.23545,14.64236.66619.52574,1.33244,1.05149,2.04926,1.61718,0,.618-.27848,1.50277.04336,1.89828,2.99387,3.67925,4.50117,8.06522,6.38026,12.32834,2.21942,5.03487,3.16165,10.36554,4.39852,15.60933.66839,2.83377.03794,5.958.14132,8.9461.10667,3.083-1.68265,5.93052-1.02164,9.06012-1.7484,2.18433-1.177,5.08652-2.36592,7.50046a80.34373,80.34373,0,0,0-2.87981,7.77683,17.08189,17.08189,0,0,1-.83209,1.68359q-.45852-.28455-.917-.56912v-1.85111c1.49492-.08532.84874-1.242.99926-2a34.74326,34.74326,0,0,0,.95461-5.03821c.15247-3.29614.12222-6.60729-.00128-9.90591a12.05835,12.05835,0,0,0-.95333-3.05588,26.50975,26.50975,0,0,0-.91717-7.59024,54.47093,54.47093,0,0,0-13.85645-23.6891c-2.42611-2.38969-4.98981-4.61221-7.59426-6.81519a65.66249,65.66249,0,0,0-10.65687-6.887c-9.87613-5.53479-20.7966-8.37828-31.40882-12.00234-6.25505-2.136-12.652-3.92264-18.50643-7.05411-3.54338-1.89534-7.56651-2.96318-10.52726-5.929C428.37023,351.19346,427.65537,351.40983,427.157,351.40983Zm-1.99851-16q-.16449-.41465-.329-.82925l-.67022.82925c.08526,1.496,1.24108.84938,2.089.89524l-.19516.19532.69656.8171.31507-.31531a2.87631,2.87631,0,0,0-.907-.59235Q425.65817,335.90984,425.15851,335.40983Z" transform="translate(-404.05389 -289.62994)"/><path class="cls-1" d="M592.03434,342.40983c6.59733-3.33333,13.24076-6.57943,19.77265-10.03662a88.82371,88.82371,0,0,0,9.53813-5.85174,97.10571,97.10571,0,0,0,17.83658-15.88c5.2453-6.08628,10.40729-12.2889,13.8373-19.68758.2578-.55611.94247-.914,1.38544-1.32393a21.938,21.938,0,0,1-.19517,11.06787,4.28072,4.28072,0,0,0-.20693,1.40515c.4071,5.36837-1.89782,10.15189-3.364,15.084a41.04269,41.04269,0,0,1-6.93765,13.09935c-.56122.73746-.52341,1.93151-.90289,3.49529,3.30315-1.1349,4.44225-3.80541,6.56293-5.15167,2.18691-1.38831,3.418-3.57369,5.15894-5.31832,1.81012-1.814,3.35584-3.89216,5.24494-6.124a15.03261,15.03261,0,0,1-.65308,6.12379c-2.76942,10.683-9.47464,18.61667-17.38623,25.67826a38.09773,38.09773,0,0,1-4.72439,3.42013c-.49878,0-1.1177-.19446-1.4784.02887-6.45741,3.99776-13.4669,6.79978-20.52934,9.46152-4.31911,1.62781-8.63151,3.51424-13.12122,4.39053-6.45906,1.26068-12.4227,3.88965-18.32657,6.39409a67.12557,67.12557,0,0,0-16.0591,9.54051c-4.35284,3.52016-8.85577,6.61322-12.20863,11.301-2.92842,4.09417-5.84013,8.10627-7.6594,12.82761-.82909,2.1515-2.05377,4.22438-2.44849,6.44853-.39217,2.20978-1.41448,4.12714-1.95661,6.17957-.61618,2.33276-.14236,4.95392-.14236,7.4497v12.97809c-.28244-.116-.70882-.15139-.82567-.36023-1.59129-2.84323-2.31066-5.99994-3.16245-9.1029-1.08439-3.95011-2.17867-7.89658-2.02425-12.06851.09173-2.47715-.113-4.96926.05422-7.43845.15955-2.35422.62875-4.68745.96187-7.02991,1.31311-1.47052.97273-3.272.99926-5,1.33232-3.40237,2.5648-6.84839,4.02508-10.19485,1.46485-3.35732,3.8737-6.24915,4.96823-9.80515,1.49492-.08532.84873-1.242.99925-2h1.99852v-2c3.43586-3.27171,6.83811-6.57977,10.31739-9.80449,3.20471-2.97021,6.19821-6.30114,9.81265-8.66458,5.30611-3.4695,10.25018-7.57057,16.07611-10.18742C589.12751,344.9194,590.39695,343.446,592.03434,342.40983Zm48.96357-7,.82867-.3293-.82867-.6707c-1.49492.08533-.84873,1.242-.99925,2-.75744.15062-1.91325-.496-1.89386,1.09058l-.19517-.19536q-.40829.34857-.81647.69714l.31508.3153a2.87938,2.87938,0,0,0,.5919-.90766c.75743-.15062,1.91325.496,1.99852-1Q640.49825,335.90984,640.99791,335.40983Z" transform="translate(-404.05389 -289.62994)"/><path class="cls-1" d="M590.03583,747.40983c3.61358-.45306,6.63386,1.55573,9.903,2.47486,4.61382,1.29718,9.03972,3.13,13.91189,3.62817,2.881.29449,5.57172,1.98206,8.61408,1.897,1.55957,1.93207,3.70732.59949,5.54281,1h1.99851q.49961.50007.99926,1h3.997a9.1706,9.1706,0,0,0,.62247,3.244A257.145,257.145,0,0,0,648.934,784.10759c6.21517,9.86309,12.90111,19.32318,21.011,27.71844a2.86362,2.86362,0,0,1,1.03067,2.5838c-2.35116.73621-4.58961-.42029-6.48291-1.1759a115.09944,115.09944,0,0,1-24.71958-13.59814c-5.71377-4.12336-11.57855-8.07129-16.42065-13.3111-1.6158-1.74854-3.78765-2.96985-5.51244-4.63251-5.26043-5.0708-9.62059-10.96869-14.56649-16.29816-4.39541-4.73614-7.45356-10.40319-11.802-15.10949A11.48942,11.48942,0,0,1,590.03583,747.40983Z" transform="translate(-404.05389 -289.62994)"/><path class="cls-1" d="M567.57988,745.40983h3.86005c1.95173,1.7074,3.88181,3.51532,4.63156,6.33295a33.84652,33.84652,0,0,1,.87959,12.57257A32.70419,32.70419,0,0,1,572.801,777.0446c-.74773,1.28656-1.91233,2.81323-4.00227,2.34369a31.14744,31.14744,0,0,1-6.05476-12.7732c-.12942-.5921-.69809-1.16418-.64807-1.70727.35514-3.85761-.27415-7.67389.72291-11.64069A15.63215,15.63215,0,0,1,567.57988,745.40983Z" transform="translate(-404.05389 -289.62994)"/><path class="cls-1" d="M504.71711,779.40983H502.6015c-3.6381-3.51654-4.89114-8.30865-6.35746-12.84088-.78036-2.412-.05641-5.28784-.15564-7.94891-.19669-5.27551,1.312-9.79492,5.40131-13.05957a5.287,5.287,0,0,1,5.42175,1.35681,12.92441,12.92441,0,0,1,3.08517,5.64551c.76957,3.09265,1.7634,6.33008,1.03066,9.53875-.62276,2.72706-.50822,5.62793-1.91562,8.18927-1.33739,2.4336-1.41332,5.49659-3.77838,7.44837C504.92966,778.07225,504.90478,778.865,504.71711,779.40983Z" transform="translate(-404.05389 -289.62994)"/><path class="cls-1" d="M487.34582,779.73362c-2.67965-1.65722-3.3198-4.01257-4.55478-6.0072a19.09393,19.09393,0,0,1-2.51034-6.4353,58.87011,58.87011,0,0,1-1.057-7.05646,20.52546,20.52546,0,0,1,.97047-7.05072c.65668-2.18573,1.94386-4.18176,3.14347-6.65082,1.82421-.44244,3.94372-.95654,5.89607-1.43011a13.79985,13.79985,0,0,1,4.8679,10.809c.03189,1.99811-.13113,4.00836.03177,5.99359.44724,5.45087-2.15306,10.04639-4.08534,14.80847C489.59555,777.82927,488.36587,778.6287,487.34582,779.73362Z" transform="translate(-404.05389 -289.62994)"/><path class="cls-1" d="M552.75882,779.884c-3.78161-4.76886-6.60312-9.50653-6.68588-15.46356-.02763-1.98822-.0044-3.97711-.0044-5.9657,0-6.69146.69077-8.305,5.82508-13.27789,1.48845.40045,3.13768.84406,4.49568,1.20935a16.50029,16.50029,0,0,1,1.98369,2.895c.7406,1.8559,1.72692,3.654,1.6974,5.7652-.04616,3.31366-.11594,6.63287.02336,9.94128a14.81248,14.81248,0,0,1-1.50974,6.35053C556.62984,776.05626,555.93132,776.97557,552.75882,779.884Z" transform="translate(-404.05389 -289.62994)"/><path class="cls-1" d="M574.04773,742.40983c3.24648-.38287,5.95614,1.26789,8.82479,2.32361.70925.26105,1.444.45282,2.167.67639-.7392,2.0622,1.33031,2.87842,2.11012,4.08393,3.27235,5.05859,6.96186,9.847,10.86765,15.24432v1.67175a96.85589,96.85589,0,0,0-9.77075.0727c-3.16573.32208-5.92467-1.24189-9.20256-1.22779,0-3.71295-.11021-7.34009.02866-10.9577.16346-4.25641-.821-7.94788-4.30752-10.70117A4.05754,4.05754,0,0,1,574.04773,742.40983Z" transform="translate(-404.05389 -289.62994)"/><path class="cls-1" d="M573.04847,741.40983l.99926,1Q573.548,741.90986,573.04847,741.40983Z" transform="translate(-404.05389 -289.62994)"/><path class="cls-2" d="M595.03211,565.40983v1c-5.03623.266-9.9237-1.7-15.0341-.94763a2.00133,2.00133,0,0,0,.14991-.14291l-.69656-.81711-.31507.31531a5.60048,5.60048,0,0,0,.86172.64471c-.14912,2.31378,1.85848,3.60867,2.95178,5.18216a136.84282,136.84282,0,0,1,9.70628,16.90363,3.59739,3.59739,0,0,1,.35746,1.33664,10.464,10.464,0,0,1-.21181,1.73175c-.73408-.31107-1.518-.38483-1.72656-.77033a109.30428,109.30428,0,0,0-11.18528-16.30121c-5.176-6.4537-11.4365-11.76059-17.02579-17.75546a20.07268,20.07268,0,0,0-3.756-2.56812c-1.83891,1.68351-1.77822,3.67936-2.19045,5.66495a21.75831,21.75831,0,0,0-.83166,5.96976c1.36343.87662,2.66782,1.71524,3.97215,2.55386,1.54,3.95877,4.31673,7.22834,6.54682,10.73737,2.39342,3.766,3.6578,7.855,5.3993,11.79922,1.42637,3.23044,2.45618,6.6362,3.36774,9.15244,2.91214,10.65173,3.84424,20.78064,4.75842,30.97751-1.17991.26739-1.39173-.724-1.8819-1.00446-1.32171-22.90915-10.11223-42.98056-22.8561-61.66208H554.0626c-.33533-5.61261.86489-11.03866,2.18508-16.792-2.405-1.72333-4.88266-3.40588-7.24736-5.23465a29.743,29.743,0,0,1-2.93178-2.97333v-2.50821c-.62477-.28753-1.28523-.59149-2.00119-.921.05062-.45254.09984-.89242.14936-1.33477l5.84886.76394q2.49817.5,4.99628,1c.23152.73172.24036,1.85382.72987,2.1334,3.91127,2.23416,6.54152,5.84246,9.71317,8.85562,3.358,3.19012,6.56872,6.5354,9.78264,9.75171,6.35727.98339,12.68258,1.78887,18.27363,5.23043C593.92118,565.60258,594.5359,565.40983,595.03211,565.40983Z" transform="translate(-404.05389 -289.62994)"/><path class="cls-2" d="M541.07226,531.40983c-.95119-.453-1.90239-.906-3.07175-1.463.381-1.74377,1.49913-2.78537,2.81334-4.05963,1.112-1.07816,1.02024-3.3996,1.53755-5.47742h2.71789c-.90174,1.73569-1.68326,3.54883-2.7371,5.18643A8.99957,8.99957,0,0,0,541.07226,531.40983Z" transform="translate(-404.05389 -289.62994)"/><path class="cls-1" d="M690.96075,668.91876c0-12.83185.19519-25.66748-.05529-38.49444-.24787-12.69428,1.15161-25.43488-.944-38.08234.72271-5.26245-1.38312-10.3432-1.00086-15.58405a1.23993,1.23993,0,0,0-.00531-.49725c-1.66479-4.44128-1.57751-9.25348-2.95282-13.76977-.99713-3.2743-1.30328-6.78644-2.52337-9.95923-1.88-4.88849-3.08973-9.97907-5.374-14.77649-2.89849-6.08777-9.62512-20.98737-12.57049-25.27472a257.15645,257.15645,0,0,0-17.66126-22.82984C646.47125,482.51,645.045,475.2464,643.7605,468.705c1.18579-1.87024,1.84546-3.14881,2.72265-4.25452a75.50806,75.50806,0,0,0,10.97254-19.95612,58.81322,58.81322,0,0,0,4.34729-18.6278c.29553-6.987.548-14.01593-.6023-21.111a76.7812,76.7812,0,0,0-4.71356-17.09881,81.70158,81.70158,0,0,0-11.69482-20.20465c-1.90039-2.35852-4.402-4.26691-5.79291-7.0423-.89264-.65631-1.78522-1.31262-2.70013-1.98535q-7.0362,3.23812-14.22614,6.54693c2.37579,2.37745,4.88129,4.75379,7.2323,7.27448,2.31366,2.48053,4.49445,5.08765,6.66315,7.69781.24456.29438.03308.96827.03308,1.46613A57.64274,57.64274,0,0,1,646.137,404.90106c1.52466,7.56677.76685,15.07617.68189,22.57569-.04981,4.39349-1.75189,8.76953-3.33643,13.02105-2.20434,5.91413-5.52063,11.06385-9.10913,16.22467-5.59119,8.0412-13.397,13.184-21.76135,17.335a170.50066,170.50066,0,0,1-18.38086,7.384,90.23177,90.23177,0,0,0-12.36438,5.04913,80.64079,80.64079,0,0,0-16.76709,11.35126c-2.50421,2.3031-5.216,4.38452-7.66809,6.7392A57.26319,57.26319,0,0,0,546.814,518.13538a18.63993,18.63993,0,0,1-1.74476,2.27441c-.90173,1.73572-1.68322,3.54883-2.73706,5.18646a8.99948,8.99948,0,0,0-1.25994,5.81354q4.50612,2.74777,8.99328,5.48383v1.51617c1.65869.332,3.31714.664,4.94562.996l-.01044.004.03064.00012c.26209.73169.27082,1.8537.76038,2.1333,3.91125,2.23413,6.5415,5.84247,9.71313,8.85559,3.358,3.19013,6.56873,6.5354,9.78266,9.75171,6.35724.9834,12.68255,1.78888,18.27362,5.23047.36.22156.97473.02881,1.47094.02881,3.831-4.55829,7.549-9.24884,13.585-11.1236.42718-.13269.78363-.86425,1.12939-.83313,4.8681.43848,9.7074-.18579,14.6626.61371,7.10278,1.14606,12.614,4.87689,17.66449,9.18469,4.14288,3.5337,7.57666,8.129,7.91766,14.1189,2.21521,2.90045.84241,5.94373-.2077,8.5838a16.49639,16.49639,0,0,1-6.70667,8.47669c-4.13159,2.45727-8.41632,4.18908-13.34094,3.99768-3.5484-.13794-7.07654.14508-10.59051-.96356a48.31234,48.31234,0,0,1-13.82349-6.38233c-3.55505-2.546-6.00049-6.26019-8.15283-10.06769-.75482-1.33526-1.26428-2.80944-2.137-4.7901v-9.81506c-5.03619.266-9.9237-1.7-14.98883-1-.19439,2.36615,1.81324,3.66107,2.9065,5.23456a136.835,136.835,0,0,1,9.7063,16.90362,3.59756,3.59756,0,0,1,.35748,1.33661,10.46664,10.46664,0,0,1-.21185,1.73175c-.73407-.311-1.518-.38482-1.72657-.77032a109.30332,109.30332,0,0,0-11.18524-16.30121c-5.176-6.45367-11.43652-11.76056-17.02582-17.75543a20.06954,20.06954,0,0,0-3.756-2.56812c-1.83892,1.68347-1.77819,3.67932-2.19043,5.66492a21.75868,21.75868,0,0,0-.83166,5.96979c1.3634.87658,2.66778,1.71521,3.97211,2.55383,3.26916-.6593,5.65094,1.64453,7.55291,3.317,5.57886,4.90545,11.01776,10.07605,14.45044,16.91149a72.62239,72.62239,0,0,1,5.04022,14.41547c1.83545,7.0083,1.24317,14.13867.70258,21.07556-.51013,6.54633-2.98474,12.93445-5.94519,18.94763-.40179.81629-.94623,1.5622-1.59015,2.61011-.769-.61438-1.52081-1.16717-2.21887-1.78119-2.93292-2.57995-5.94251-5.08185-8.75366-7.78943-6.236-6.00628-10.84931-13.20489-14.84308-20.82519-1.76355-3.36487-3.56659-11.53058-4.51825-15.13916-1.02918-3.90259-.559-7.75342-.90271-11.61237-.46625-5.23468,1.27508-10.1369,2.171-15.14325a7.35633,7.35633,0,0,1,2.85925-4.98663c-.33533-5.61261.86487-11.03864,2.18506-16.792-2.405-1.72333-4.88269-3.40589-7.24737-5.23468a29.74508,29.74508,0,0,1-2.93177-2.97333c-2.60174-1.35-5.90313-1.32825-7.452-3.967-2.04926-.17822-3.11274.34991-3.57093,2.17145-1.367,5.43567-3.17791,10.73053-4.07739,16.32068-.7857,4.88378-1.25226,9.81842-2.08533,14.64459-1.25055,7.24408-.472,14.41571-.7351,21.60742-.0857,2.34485.64849,4.71246.9198,7.07977.27179,2.37049-.66309,4.90863,1.01287,7.0791-.455,4.71808,1.427,9.10083,2.1482,13.63776a76.0219,76.0219,0,0,0,4.20086,14.21173c3.20771,8.66821,6.601,17.29273,11.275,25.29761,4.57684,7.8385,9.0177,15.762,14.73187,22.90179,3.01709,3.76978,5.81763,7.69422,9.20972,11.16455,2.02826,2.07508,3.645,4.55884,5.71051,6.59028,2.89917,2.8515,6.03186,5.46673,9.08679,8.15789,2.9303,2.58142,5.16669,5.89753,8.723,7.84821,1.1908.6532,1.92206,2.14551,2.86347,3.25421h1.99847v2A87.3345,87.3345,0,0,1,615.77191,732.621a21.35085,21.35085,0,0,0,3.24237,1.78876q.99921,1,1.99848,2a40.18291,40.18291,0,0,1,7.41027,3.7984c2.21717,1.38214,4.77967,2.11621,6.89612,3.85309,1.06464.87366,3.20655.30023,3.68024,2.34851a8.32132,8.32132,0,0,1,2.81256.3819c4.059,2.16986,8.331,3.8363,12.55072,5.63812,6.19733,2.64648,12.57532,4.78577,18.9397,6.96393,3.19171,1.09222,6.441,2.01605,9.6643,3.01605.27875-.11151.55744-.223.8711-.34839q-2.44281-2.83584-4.8681-5.65161a11.31214,11.31214,0,0,1-4.99628-6l-.99927-1c-3.65124-2.06409-5.37872-5.88483-7.92242-8.92523-3.54071-4.23206-6.63452-8.84516-9.82318-13.36334-2.16443-3.067-4.28205-6.17987-6.21045-9.39832-3.42377-5.71411-6.48713-11.65247-10.07111-17.26019a161.19908,161.19908,0,0,1-10.64191-20.55207c-2.6549-5.8656-5.9541-11.48168-7.91955-17.6596a14.24779,14.24779,0,0,0-.75989-2.828c1.023.45569,1.97229.78785,2.24481,1.41468,2.74781,6.31952,6.96247,11.73791,10.47925,17.58233,3.05927,5.08393,6.381,9.97113,9.67523,14.88318,2.892,4.31232,6.04236,8.4505,9.03931,12.6933,1.82342,2.5813,3.36371,5.32977,5.572,7.67713,1.92139,2.04235,3.2168,4.65936,5.0033,6.847,3.6662,4.48932,7.51092,8.83222,11.20117,13.30237a26.25137,26.25137,0,0,1,2.132,3.58673q.49961.5.9992,1c2.27289.9137,3.05756,3.0188,3.99707,5q.99921,1,1.99848,2,.9992,1,1.99853,2,2.99781,2.49994,5.99555,5c.33307-.40656.931-.79877.95379-1.22211.10382-1.92114.04547-3.85113.04547-5.77789v-76.491ZM556.98816,539.41821c.6615.0022,1.323.00049,1.98407-.01532C558.30981,539.41876,557.64716,539.42047,556.98816,539.41821Zm2.02655-.81445a18.38131,18.38131,0,0,1,4.00391.6156A18.39058,18.39058,0,0,0,559.01471,538.60376Zm83.79816-9.42816c-3.64685,2.193-6.61707,5.28546-10.33857,7.54358a80.03327,80.03327,0,0,1-17.59362,8.23633,24.729,24.729,0,0,1-7.39594,1.5224c-2.193.00207-4.37573.72546-6.581.89581-2.15143.16614-4.35584-.19318-6.48316.08716-3.64319.48-7.13269-.58765-10.54455-1.23926-3.429-.65491-7.04755-1.1554-10.28943-2.79523-2.295-1.16089-5.136-1.40063-6.53369-4.0166h-2.68457c1.5296-2.07611,2.60675-3.538,3.68384-5,0-.33319-.14332-.79016.02136-.98114,2.77966-3.22437,4.9461-6.79871,8.607-9.48328a105.52287,105.52287,0,0,1,14.7038-9.28253,31.31779,31.31779,0,0,1,12.129-3.30041c2.69665-.17823,5.28961-1.03968,8.08-1.0185a68.04583,68.04583,0,0,1,23.55512,4.69263c5.171,1.93958,10.3728,3.7854,15.25506,7.27637C647.96826,524.90631,645.79742,527.3808,642.81287,529.1756ZM596.843,599.79193c-2.19367-2.49231-3.50067-4.83172-3.76453-7.66662-.0235-.25306.58368-.56489,1.93152-1.78547C594.41608,594.28809,597.6178,596.20917,596.843,599.79193Zm22.78045,59.62726a3.53315,3.53315,0,0,1-.54962-1.894q.32254-.04377.6452-.08765.19107.97724.38208,1.95441C619.88971,659.40283,619.68109,659.41357,619.62341,659.41919Zm36.71888-4.974a32.0169,32.0169,0,0,1-10.63129-2.07031c-10.24024-3.69617-19.8487-8.36872-27.69959-16.32477a61.84977,61.84977,0,0,1-13.29651-19.48749c-1.59332-3.77008-2.89135-7.66845-2.64666-11.861.02612-.44775.62488-.862.95794-1.29181V601.98c1.85572-2.09766,3.26838,1.0249,4.99628.42981.42957-.33331.90314-.98437,1.27911-.93213.72559.10083,1.37122.81574,2.09327.89862,7.20782.82684,16.87109,4.18988,22.09124,8.0799a59.83959,59.83959,0,0,1,7.6734,6.71869c2.175,2.29327,3.74866,5.14978,5.866,7.50744,4.8252,5.37287,6.96643,12.03717,9.32251,18.612a34.196,34.196,0,0,1,1.06336,4.051c.576,2.564,1.10412,5.13867,1.69482,7.909A11.60521,11.60521,0,0,0,656.34229,654.44519Z" transform="translate(-404.05389 -289.62994)"/><path class="cls-2" d="M619.23774,659.43626l-.16394-1.911.64521-.08765.382,1.95441Z" transform="translate(-404.05389 -289.62994)"/><path class="cls-2" d="M558.05962,734.40983c.75743.15064,1.91325-.496,1.99852,1C559.3007,735.2592,558.14489,735.9058,558.05962,734.40983Z" transform="translate(-404.05389 -289.62994)"/><path class="cls-2" d="M556.06111,733.40983c.75743.15064,1.91325-.496,1.99851,1C557.30219,734.2592,556.14637,734.9058,556.06111,733.40983Z" transform="translate(-404.05389 -289.62994)"/><path class="cls-2" d="M554.0626,732.40983c.75743.15064,1.91325-.496,1.99851,1C555.30368,733.2592,554.14786,733.9058,554.0626,732.40983Z" transform="translate(-404.05389 -289.62994)"/><path class="cls-2" d="M469.12579,643.40983H466.6476a22.49832,22.49832,0,0,1-6.6324-10.58127c-.80092-2.82128-.86971-3.08676,1.11654-6.41873,2.02773,2.08683,1.748,5.39206,3.90676,7.4097C465.29515,637.48829,467.94034,640.13752,469.12579,643.40983Z" transform="translate(-404.05389 -289.62994)"/><path class="cls-2" d="M533.07821,652.40983a12.80136,12.80136,0,0,1-1.186.95328c-1.71753-1.72391-3.37377-.8024-5.25579.37473-.76634-1.1225-1.48846-2.18021-2.55157-3.73743v-1.59058C527.17739,649.52989,530.51365,650.10112,533.07821,652.40983Z" transform="translate(-404.05389 -289.62994)"/><path class="cls-2" d="M534.07747,395.40983v1.47661c-1.83848.60289-1.838.60245-1.99852-1.47661Z" transform="translate(-404.05389 -289.62994)"/><path class="cls-2" d="M521.08713,441.40983h-1.71881c-.10051-.514-.20987-1.0733-.39113-2h3.1092C521.93587,440.16783,522.58205,441.32451,521.08713,441.40983Z" transform="translate(-404.05389 -289.62994)"/><path class="cls-2" d="M538.07449,403.40983h-1.71942c-.494-1.46562-1.01231-3.00337-1.68533-5h4.404C539.04722,400.13786,539.3876,401.93931,538.07449,403.40983Z" transform="translate(-404.05389 -289.62994)"/><path class="cls-3" d="M547.0678,376.40983c.45212-1.3625.90424-2.725,1.52584-4.59845l2.47119,2.59845v2h-3.997Z" transform="translate(-404.05389 -289.62994)"/><path class="cls-2" d="M547.0678,376.40983h1.99851c-.15052.758.49567,1.91468-.99925,2C546.57214,378.32451,547.21832,377.16784,547.0678,376.40983Z" transform="translate(-404.05389 -289.62994)"/><path class="cls-2" d="M578.07116,408.18634l-1.90959.164-.08758-.64572q.9765-.19116,1.95295-.38235Z" transform="translate(-404.05389 -289.62994)"/><path class="cls-2" d="M559.83473,440.3834l.16394,1.911-.64521.08764-.382-1.9544Z" transform="translate(-404.05389 -289.62994)"/><path class="cls-1" d="M543.07077,441.40983v-2q.4996.622.99926,1.24387Z" transform="translate(-404.05389 -289.62994)"/><path class="cls-2" d="M631.00535,756.40983v1q-.49969-.5-.99926-1Z" transform="translate(-404.05389 -289.62994)"/><path class="cls-4" d="M572.04921,741.40983c-1.40807-1.61108-3.36309-2.25793-5.26573-3.00287-1.25389-.4909-2.79211-.71533-3.66543-1.59417-.94479-.95081-2.85792.68457-3.05991-1.403-.08527-1.496-1.24109-.84936-1.99852-1-.08526-1.496-1.24108-.84936-1.99851-1-.08526-1.496-1.24108-.84936-1.99851-1a9.7144,9.7144,0,0,0-1.889-1.96039c-1.58964-.91876-3.42946-1.43164-4.94834-2.44018-4.4447-2.95129-8.84657-5.97638-13.144-9.13751-4.47873-3.29444-8.92354-6.65277-13.18441-10.22083-3.99769-3.34772-7.86951-6.87231-11.551-10.56439-3.91634-3.92749-7.568-8.12158-11.289-12.24109A83.33318,83.33318,0,0,1,491.417,678.125c-2.97033-4.23456-6.10587-8.34765-8.94055-12.69476-3.31718-5.08692-6.9246-9.94766-9.48837-15.51389-.57434-1.24713-.84428-3.23629-2.863-3.5065q-.49969-1.5-.99926-3c-1.18545-3.27231-3.83064-5.92154-4.08729-9.5903-2.15879-2.01764-1.879-5.32287-3.90676-7.4097-1.87452-5.70926-3.85425-11.38675-5.589-17.13824-1.29835-4.30463-2.82547-8.65051-3.26466-13.076-.53348-5.37467-2.27529-9.81885-6.24462-13.43466-.4298-.39157-.5336-1.11869-.89972-1.60663a277.111,277.111,0,0,1-15.55362-24.01447c-2.17867-3.63043-4.41358-7.4161-5.46925-11.68878a8.46225,8.46225,0,0,0-2.02883-4.0878c-1.26346-1.16836-.02665-3.29886-1.91984-3.95337.39516-2.17538-.28811-4.32568.81672-6.64178.90253-1.89212.19352-4.55408.199-6.87473,2.23991-1.53912.42534-4.17218,1.788-6.27319,1.24718-1.92294.83013-4.91223,1.23193-7.41788.04934-.30768.62746-.53039.96059-.79242-.07124,4.3367,1.58823,8.27774,2.81614,12.31659a165.66683,165.66683,0,0,0,6.979,19.58664,109.04437,109.04437,0,0,0,5.53415,11.64929c2.31853,3.86292,4.63663,7.79313,7.12324,11.58869,2.48485,3.79281,5.05319,7.54886,7.61927,11.27344a87.21862,87.21862,0,0,0,10.18041,12.25241c8.82553,8.7948,17.02377,18.26928,27.31574,25.52472,3.79442,2.67486,7.01864,6.18582,10.89564,8.71179,8.06742,5.25616,16.27311,10.32461,24.78923,14.836,1.62867.86273,3.01515,1.62912,3.686,3.42654.53683,1.43842,1.38441,2.77029,1.83348,4.2298.774,2.5151,2.364,4.8096,2.14519,7.60412h-2.99777c-2.56456-2.30871-5.90082-2.87994-8.99331-4-1.35446-1-2.69562-2.0191-4.07741-2.9797-.20974-.14585-.60788-.0203-.91887-.0203-.11765-.28436-.16681-.75256-.36307-.82571-3.39122-1.26422-6.20821-3.52512-9.26679-5.35391q-5.62932-3.36585-11.05885-7.06317c-3.65768-2.49058-7.03627-5.35682-10.71767-7.848a119.09706,119.09706,0,0,1-11.57208-9.4721c-2.8406-2.49674-5.16718-5.60471-8.98288-7.29105a7.40856,7.40856,0,0,0,.02488,2.07547,265.81437,265.81437,0,0,0,10.01331,24.83328c1.38489,3.10025,3.2871,5.96887,4.95023,8.94489,3.3545,6.0025,6.89557,11.85122,10.80629,17.54907a187.09175,187.09175,0,0,0,21.36789,26.06525c4.97238,5.01239,9.61248,10.37536,15.39035,14.59314,3.40634,2.48657,6.17442,5.84356,9.55959,8.36547,6.57013,4.89472,13.25778,9.65522,20.1373,14.09815,2.6716,1.7254,5.2131,4.05273,8.67507,4.32922a2.46288,2.46288,0,0,0,2.99777,2,47.86133,47.86133,0,0,0,9.76391,5.89734c8.252,4.13574,16.69516,7.91785,25.21238,11.481,3.24387,1.35712,6.39417,3.16473,9.99025,3.62164h.99926a4.587,4.587,0,0,0,3.997,2c.72395.22443,1.44064.47724,2.174.66455.59734.15253,1.21455.22657,1.823.33545.08526,1.496,1.24108.84937,1.99851,1h.99926v1c-1.83549-.40051-3.98324.93207-5.54281-1-3.04236.08509-5.7331-1.60248-8.61408-1.897-4.87217-.49817-9.29807-2.331-13.91189-3.62817-3.26911-.91913-6.28939-2.92792-9.903-2.47486-1.16936-1.90783-3.027-2.09363-4.99628-2-.723-.22357-1.45778-.41534-2.167-.67639-2.86865-1.05572-5.57831-2.70648-8.82479-2.32361l-.99926-1Z" transform="translate(-404.05389 -289.62994)"/><path class="cls-4" d="M568.05219,534.40983c0-.33319-.14333-.79016.02134-.98117,2.77967-3.22433,4.94615-6.7987,8.607-9.48327a105.524,105.524,0,0,1,14.70378-9.28251,31.31756,31.31756,0,0,1,12.129-3.30041c2.69666-.17822,5.28964-1.0397,8.08005-1.01852a68.04667,68.04667,0,0,1,23.5551,4.69262c5.171,1.93961,10.37278,3.78543,15.25507,7.27637-2.43526,2.59338-4.60607,5.0679-7.59066,6.8627-3.64683,2.193-6.617,5.28546-10.33856,7.54358a80.03033,80.03033,0,0,1-17.5936,8.2363,24.72774,24.72774,0,0,1-7.39593,1.5224c-2.193.00207-4.37577.72549-6.581.89581-2.15141.16614-4.35583-.19318-6.48315.08716-3.64316.48007-7.13269-.58762-10.54452-1.23926-3.429-.65491-7.04756-1.15536-10.28947-2.7952-2.295-1.16088-5.136-1.40066-6.53365-4.0166,5.62155-2.872,11.1657-5.99319,17.2659-7.69934,5.2217-1.46051,10.21792-3.61276,15.67309-4.44516,3.19745-.48794,6.28134-1.93109,9.63188-1.958,1.45954-1.70687,3.59431-.21807,5.07392-.983a9.792,9.792,0,0,1,5.61539-.87533c3.36791.30078,6.34367-1.35282,9.60326-1.48032a85.94955,85.94955,0,0,0-23.891.55658c-1.33318.25012-2.65745.792-4.09522.92709a33.67273,33.67273,0,0,0-4.57936.96268q-4.08405.97284-8.15549,1.99811a80.31591,80.31591,0,0,0-13.13269,4.44336C573.3952,532.04548,571.0624,533.99971,568.05219,534.40983Z" transform="translate(-404.05389 -289.62994)"/><path class="cls-4" d="M560.05814,567.40983c3.26911-.65933,5.65088,1.64453,7.55291,3.317,5.57886,4.90546,11.01774,10.076,14.45043,16.91147a72.62415,72.62415,0,0,1,5.04019,14.41546c1.83549,7.00833,1.24316,14.13868.70261,21.0756-.51012,6.54632-2.98478,12.93441-5.94523,18.94763-.4018.81625-.94619,1.56219-1.59012,2.61007-.769-.61438-1.52084-1.16714-2.21887-1.78115-2.93294-2.58-5.94254-5.08185-8.75368-7.78946-6.236-6.00626-10.84929-13.2049-14.84308-20.82517-1.76352-3.36487-3.56656-11.53058-4.51825-15.13916-1.02914-3.90259-.559-7.75345-.90271-11.61236-.46626-5.23471,1.27512-10.13694,2.17106-15.14328a7.3561,7.3561,0,0,1,2.8592-4.98661h1.32982c12.74387,18.68152,21.53439,38.75293,22.8561,61.66208.49017.28049.702,1.27185,1.8819,1.00446-.91418-10.19687-1.84628-20.32578-4.75842-30.97751-.91156-2.51624-1.94137-5.922-3.36774-9.15244-1.7415-3.94424-3.00588-8.0332-5.3993-11.79922C564.37487,574.63817,561.59813,571.3686,560.05814,567.40983Z" transform="translate(-404.05389 -289.62994)"/><path class="cls-4" d="M595.03211,565.40983c3.831-4.55829,7.549-9.24884,13.58493-11.12362.42723-.13269.78365-.86423,1.12941-.8331,4.86814.43844,9.70743-.18582,14.66261.61371,7.10281,1.146,12.614,4.87689,17.66447,9.18469,4.14291,3.53369,7.5767,8.129,7.91769,14.11886,2.21521,2.90049.84239,5.94376-.20773,8.58384a16.49636,16.49636,0,0,1-6.70662,8.47665c-4.13163,2.45727-8.41634,4.18909-13.341,3.99768-3.54839-.13794-7.07653.14508-10.59051-.96356a48.31129,48.31129,0,0,1-13.82352-6.38233c-3.555-2.546-6.00048-6.26019-8.15281-10.06765-.75481-1.33527-1.26432-2.80948-2.137-4.79013v-10.815Zm27.07879-3.06329c-1.49175-2.935-4.25269-3.0043-6.538-3.93671-3.27332,1.30963-7.32011.9769-9.549,4.6915v2.81912q1.218,1.19688,2.48394,2.44071C613.96163,568.6407,619.34014,568.66273,622.1109,562.34654ZM601.66652,565.193c-2.93269,1.90469-2.93269,1.90469-1.92581,5.27465C602.55142,569.71879,602.253,567.71415,601.66652,565.193Z" transform="translate(-404.05389 -289.62994)"/><path class="cls-4" d="M608.02245,602.40983c.42955-.33331.90313-.9844,1.27914-.93216.72559.10086,1.37123.81577,2.09323.89862,7.20783.82685,16.87111,4.18988,22.09129,8.0799a59.84165,59.84165,0,0,1,7.67336,6.71869c2.175,2.2933,3.74868,5.14981,5.866,7.50747,4.82521,5.37284,6.96644,12.03714,9.32247,18.612a34.18745,34.18745,0,0,1,1.06336,4.051c.576,2.564,1.10416,5.1387,1.69484,7.90906a11.60455,11.60455,0,0,0-2.76387-.80912,32.01647,32.01647,0,0,1-10.63125-2.07031c-10.24025-3.6962-19.8487-8.36871-27.69961-16.3248a61.849,61.849,0,0,1-13.2965-19.48749c-1.59336-3.77-2.89134-7.66842-2.64665-11.861.0261-.44775.62484-.862.95791-1.29181,2.9777,2,5.92649,4.04471,8.93878,5.99109,7.21838,4.66413,14.30411,9.47354,20.31466,15.72049a60.523,60.523,0,0,0,6.25633,5.255c.30574.2416.96632.03344,1.46272.03344q.49968.5.99925,1c.15053.758-.49566,1.91468.99926,2,.209,2.24008.75938,2.79087,2.99777,3,.15052.758-.49567,1.91468,1.04451,1.94763a2.01184,2.01184,0,0,0-.14991.14289q.34827.4086.6965.81714l.31507-.31531a5.59777,5.59777,0,0,0-.86166-.64472c-.19578-.70562.45041-1.8623-1.04451-1.94763-.209-2.24005-.75932-2.79083-2.99777-3-.15052-.758.49566-1.91467-.99926-2q-.49959-.5-.99925-1A2.7136,2.7136,0,0,0,638.971,627.837c-4.30222-3.99979-8.2002-8.39505-12.91465-12.00168-4.76092-3.64215-9.03569-7.89978-14.55454-10.52185C610.18063,604.68577,609.17387,603.39543,608.02245,602.40983Z" transform="translate(-404.05389 -289.62994)"/><path class="cls-4" d="M607.02319,442.40983l-2.99777,3c-.61.11038-1.43125.00663-1.79505.36634-2.14727,2.1231-4.83631,3.266-7.51113,4.4718a11.07386,11.07386,0,0,0-1.68564,1.16186c-1.66319.33332-3.32394.67951-4.99031.99622-1.51047.28711-3.16732-.60663-4.58185.92358-.45346.49048-2.04987.41455-2.833.02027-2.8989-1.45951-6.63093-.22611-9.13889-2.90741-.22944-.24527-.94766-.03266-1.43887-.03266-2.37933-2.44494-4.75873-4.88986-7.00407-7.19711.20444-3.37207-1.17582-6.212-1.10251-9.35577a22.58661,22.58661,0,0,1,4.02325-11.84043c3.34682-5.2601,8.31163-8.39813,14.15219-10.11394,2.7-.79316,5.65248-1.66279,8.33657-1.31338a18.48766,18.48766,0,0,1,8.30449,2.743c2.16563,1.48637,4.09248,2.99007,5.27757,5.365.55458,1.11145,1.22974,2.16265,1.98723,3.47927a20.96361,20.96361,0,0,0,.0233,3.17621c.82781,5.80576-2.36781,9.97757-5.6071,14.149-.485.6246-.94137,1.27158-1.411,1.90817a2.74652,2.74652,0,0,0-2.57249,1.023c-2.50138,2.622-6.133,3.07151-9.31094,3.76557-2.61055.57016-5.83862,1.26086-8.51564-.70279-2.87482.57171-4.905-1.93076-7.58012-2.08579a9.58663,9.58663,0,0,0-1.04451-.94763,2.00282,2.00282,0,0,0,.14992-.14291q-.34828-.4086-.69657-.81711l-.31507.31531a5.60242,5.60242,0,0,0,.86172.64471,9.58663,9.58663,0,0,1,1.04451.94763v1.6146c1.21291.52655,2.45234,1.12729,3.737,1.60687a26.39811,26.39811,0,0,0,5.22066,1.72833c6.19876.90555,11.83842-.905,17.18448-3.93359,1.22675-.69492,2.07488-1.49036,1.83708-3.01621h2.48405c3.383-2.93979,5.05928-7.40359,7.50851-11.85058,0-1.19883-.09386-2.8548.01653-4.497.44907-6.68091-2.59768-11.67807-7.996-15.01049-5.66126-3.4947-10.0449-5.03913-17.52316-2.688a12.10677,12.10677,0,0,1-3.47581.04606v-.82951c7.25376-7.3243,15.42151-12.68817,23.86237-18.07413a9.661,9.661,0,0,0-2.8445.42348c-9.26922,4.502-18.05816,9.67294-25.3454,17.182-2.40629,2.47958-4.97652,4.82409-7.26522,7.42489-3.4422,3.91162-5.31294,8.72357-7.35086,13.41681a6.73186,6.73186,0,0,0-.04226,2.477v10.97949a20.85393,20.85393,0,0,1-3.99831-9.52746c-.19815-2.5408-1.13813-4.912-1.07946-7.57187.24628-11.15454,4.66-20.29418,12.031-28.51958,5.92284-6.60948,13.60536-10.13319,21.17327-14.02858,3.8151-.07957,7.23022-1.8901,10.95377-2.57123,6.23766-1.141,12.39617-.58877,18.5759-.698,3.31625-.05863,6.6477.737,10.008,1.15162,1.12325,1.90128-.31428,3.47008-1.235,4.652-3.79655,4.87271-6.27823,10.68159-10.81007,15.03279-.8441.81046-1.17851,2.15254-1.842,3.42981a35.978,35.978,0,0,1,4.17976,19.65048c.36215,4.06452-1.85806,7.33258-3.32108,10.83744-.2897.69393-.45389,1.44036-.67595,2.16256Q610.021,438.40987,607.02319,442.40983Zm-1.9721-54.22349-.04422-.864-1.953.38236.08758.64573c.63655-.05467,1.273-.10936,1.85677-1.717l.04422.86406,1.95295-.38234-.08758-.64576C606.27131,386.524,605.63482,386.57866,605.05109,388.18634Zm-4.77422,35.0955c-1.36508-4.98532-2.2801-6.14706-5.24726-6.83966a13.43,13.43,0,0,0-2.90964-.03235v4.084c1.38045,1.55429,2.46417,2.7745,3.758,4.23123Z" transform="translate(-404.05389 -289.62994)"/><path class="cls-4" d="M452.13843,433.40983q-.99929-3.5-1.99851-7c-.15052-.758.49566-1.91467-.99926-2,0-2.30539.01525-4.61093-.00341-6.91617-.03349-4.13768.57855-8.09484,2.97057-11.62257.22938-.33826.03061-.96724.03061-1.46126.96687-1.66661.96687-1.66661.99914-4.28125-5.45426-5.98309-9.68347-12.84-14.15164-19.9174.97656-.59573,1.9102-1.59082,2.96184-1.73726,6.46815-.90062,13.03809-1.83118,19.49764-.93106,5.987.83426,12.05524,1.62726,17.8206,3.82146a63.59326,63.59326,0,0,1,13.864,7.48727,43.27113,43.27113,0,0,1,15.0219,18.16432A51.007,51.007,0,0,1,511.035,415.288c.61905,2.45007.6751,5.03784,1.07348,7.54989.36777,2.31827-.56,4.40049-1.014,6.5719.381,2.13425-.72877,3.98648-1.45693,5.78568a12.20282,12.20282,0,0,0-.54159,3.21432c-.52384.30487-1.04774.60974-1.99851,1.16309,0-3.12872.05074-6.06262-.02653-8.99313a13.805,13.805,0,0,0-.56336-3.24286c-1.87275-6.82236-6.00676-12.336-10.56429-17.50121a54.82135,54.82135,0,0,0-10.44724-9.5417c-4.26075-2.84935-8.12109-6.3082-13.04895-8.14006-1.56475-.58164-2.87505-1.84865-4.21512-2.74413h-3.10328c-.08527-1.496-1.24108-.84938-3.2091-1.57742-.531.18794-.33233.56447-.1898.54425a8.23153,8.23153,0,0,0,1.40038-.4324c-.60215-.17144-1.20436-.34287-1.21058-.11185,1.29585,2.07339,2.45167,1.4268,3.2091,1.57742.34642.51337.57556,1.26551,1.05768,1.50272a67.96112,67.96112,0,0,1,12.114,7.55191c3.4669,2.73383,7.48673,4.93274,9.81118,8.94537-1.16058,0-2.57438.43048-3.43623-.07728-3.11566-1.83559-6.52371-1.166-9.5485-.71492-2.87749.42912-6.34848.74772-8.37469,3.66752-5.22517,2.14211-6.64684,7.06939-7.45386,11.71529a18.69506,18.69506,0,0,0,3.73782,15.31238,35.717,35.717,0,0,0,9.88357,9.00934c3.357,1.96878,12.96478,2.73947,17.02628,2.08389a2.48608,2.48608,0,0,0,.892-.24112c2.64757-1.6228,5.31154-3.22336,7.884-4.959.36472-.24606.26579-1.18032.3291-1.84137a2.00268,2.00268,0,0,0,.14278.15q.40819-.34854.81653-.697l-.31508-.31531a5.6107,5.6107,0,0,0-.64423.86236c-.681.27915-1.457.4264-2.13958.76331-1.94637.96079-3.48715,2.49793-5.568,3.39392-3.04754,1.31226-6.06836.74729-9.099.85809-3.36041.12287-3.24191-.33276-7.67568-1.8623-3.82162-1.31836-5.98956-4.29877-8.6103-6.84634a11.58059,11.58059,0,0,1-3.85833-9.3606c.16333-2.4743.03074-4.96817.03074-7.369,3.656-5.88107,3.656-5.88107,8.9547-9.17639,2.86481-.51645,5.19169-1.26378,7.51851-1.26331a34.45633,34.45633,0,0,1,6.38844,1.05732c2.39214.918,4.42389,1.35713,6.0797,2.39618,5.23018,3.282,9.48416,7.57235,11.52957,13.53463,1.02122,2.97681,2.51553,6.32627,1.29768,9.26953-.83226,2.01136-.44974,3.7974-.79909,5.65024-1.33232,1.50315-2.70471,2.97406-3.96214,4.53751-.24255.30154-.03488.96564-.03488,1.46249-3.27271.46039-5.75555,2.95145-8.98977,3.52228a2.41681,2.41681,0,0,0-.00354.47772H475.12133q-.49959-.5-.99925-1h-1.99852c-2.10963-1.66024-4.87589-2.0842-6.93606-3.95691-2.96916-2.69891-6.86818-4.29657-8.82284-8.21383C455.3074,437.12031,453.56931,435.34184,452.13843,433.40983ZM474.989,418.225c-1.56755-.84305-2.49167-1.77048-3.37114-1.72983-2.35037.10858-3.968,1.75369-5.33283,3.26678v4.555h4.829C472.19,422.62541,473.34866,420.80388,474.989,418.225Z" transform="translate(-404.05389 -289.62994)"/><path class="cls-4" d="M712.94438,830.31431c-3.52088.83893-6.56994-1.07769-9.55216-2.1709a60.90335,60.90335,0,0,1-20.49342-12.10363c-3.12072-2.8534-6.51547-5.46161-9.33826-8.61426-5.22609-5.83679-10.01422-12.02368-14.74178-18.29321-4.573-6.0644-8.09365-12.72663-12.40386-18.9123-2.19167-3.14538-3.70214-6.76629-5.6471-10.4093,2.88219-1.10846,4.82874.99249,7.11147,1.54071,2.46246.59143,5.54549-.02862,7.42941,1.24982,2.33773,1.58642,4.7031.06885,6.99266,1.37866,2.05688,1.17664,4.881,1.02033,7.37092,1.426,2.51119.409,5.02763.786,7.99289,1.24725,2.25333,1.304,2.96185,4.21838,4.275,6.67334,3.14408,5.87829,6.05506,11.879,9.80532,17.42169.93851,1.38709,1.41356,3.07886,2.22546,4.56274,3.72306,6.80378,7.28279,13.68866,11.4959,20.23047,2.83517,4.40216,5.015,9.22785,7.45984,13.87885C713.06374,829.681,712.94438,830.07683,712.94438,830.31431Z" transform="translate(-404.05389 -289.62994)"/><path class="cls-2" d="M713.03483,830.30516q.4083.34845.81647.697l-.31507.31531q-.34829-.40842-.69657-.817Z" transform="translate(-404.05389 -289.62994)"/><path class="cls-3" d="M516.45063,372.83287a9.27913,9.27913,0,0,1-2.32975-.95282,12.79444,12.79444,0,0,1-1.42387-2.08864C515.107,369.0533,515.78907,370.19619,516.45063,372.83287Z" transform="translate(-404.05389 -289.62994)"/><path class="cls-1" d="M533.48428,445.40983c3.88334,7.734,9.95164,13.85147,15.6537,20.87335-5.12424,11.91028-9.9911,24.33875-16.4853,36.81833a9.98138,9.98138,0,0,1-1.37525-2.02679c-1.7287-5.78458-4.91419-10.9263-7.19479-16.46484q-2.98129-7.2399-6.00688-14.46137a7.70354,7.70354,0,0,0-.93211-1.29748v-3.84772a3.7444,3.7444,0,0,1,.54153-.67652c6.395-5.24484,9.94487-12.78256,15.24592-18.90667C533.00234,445.33784,533.25142,445.40983,533.48428,445.40983Zm7.6014,20.05521c-2.50583-3.26889-4.631-6.04114-6.77828-8.84226v30.09406c1.57878-4.08145,3.27484-7.70572,4.3626-11.50439C539.64474,471.80848,542.3403,468.7162,541.08568,465.465Z" transform="translate(-404.05389 -289.62994)"/><path class="cls-2" d="M503.10051,442.40983c.34935-1.85284-.03317-3.63888.79909-5.65024,1.21785-2.94326-.27646-6.29272-1.29768-9.26953-2.04541-5.96228-6.29939-10.25265-11.52957-13.53463-1.65581-1.039-3.68756-1.47818-6.0797-2.39618a34.45633,34.45633,0,0,0-6.38844-1.05732c-2.32682-.00047-4.6537.74686-7.51851,1.26331-5.29867,3.29532-5.29867,3.29532-8.9547,9.17639,0,2.40082.13259,4.89469-.03074,7.369a11.58059,11.58059,0,0,0,3.85833,9.3606c2.62074,2.54757,4.78868,5.528,8.6103,6.84634,4.43377,1.52954,4.31527,1.98517,7.67568,1.8623,3.03065-.1108,6.05147.45417,9.099-.85809,2.08085-.896,3.62163-2.43313,5.568-3.39392a15.61371,15.61371,0,0,1,2.19191-.718c-.11564.61576-.01671,1.55-.38143,1.79608-2.57249,1.73566-5.23646,3.33622-7.884,4.959a2.48608,2.48608,0,0,1-.892.24112c-4.0615.65558-13.66928-.11511-17.02628-2.08389a35.717,35.717,0,0,1-9.88357-9.00934,18.69506,18.69506,0,0,1-3.73782-15.31238c.807-4.6459,2.22869-9.57318,7.45386-11.71529,2.02621-2.9198,5.4972-3.2384,8.37469-3.66752,3.02479-.4511,6.43284-1.12067,9.5485.71492.86185.50776,2.27565.07728,3.48148.02491a2.007,2.007,0,0,0-.14991.1429l.69656.81713.31508-.31531a5.60434,5.60434,0,0,0-.86173-.64472c-2.3697-3.96026-6.38953-6.15917-9.85643-8.893a67.96112,67.96112,0,0,0-12.114-7.55191c-.48212-.23721-.71126-.98935-1.05768-1.50272h3.10328c1.34007.89548,2.65037,2.16249,4.21512,2.74413,4.92786,1.83186,8.7882,5.29071,13.04895,8.14006a54.82135,54.82135,0,0,1,10.44724,9.5417c4.55753,5.16518,8.69154,10.67885,10.56429,17.50121a13.805,13.805,0,0,1,.56336,3.24286c.07727,2.93051.02653,5.86441.02653,8.99313.95077-.55335,1.47467-.85822,1.99851-1.16309.86984.07215,2.07512-.40628,2.00419,1.60388-1.71308.63147-4.4131.462-4.21891,3.481Z" transform="translate(-404.05389 -289.62994)"/><path class="cls-1" d="M548.11475,482.95875c.67284-4.17288,3.4644-7.01492,4.04478-10.79312.12149-.791,1.46089-1.39456,2.20216-2.05176,8.1697,5.1092,16.79683,7.847,26.53025,9.90393-3.10554,1.97986-5.63058,3.57456-8.14,5.19367-2.51071,1.62-5.0058,3.26437-7.91062,5.16107h-3.06425C557.19436,487.55912,551.80171,486.78578,548.11475,482.95875Z" transform="translate(-404.05389 -289.62994)"/><path class="cls-1" d="M476.03124,535.28682c2.67952,5.90927,4.92779,10.74621,7.05109,15.63742.51573,1.18811-.16077,6.58548-.99249,8.53518-1.73266,4.0615-3.61309,8.05982-5.76524,12.81949-.63576-1.24167-.93314-1.81357-1.22272-2.3894-1.66-3.30069-3.39555-6.56616-4.9564-9.91318-1.7898-3.83783-1.4063-7.82806.03574-11.60583C471.75342,544.25163,473.76431,540.3004,476.03124,535.28682Z" transform="translate(-404.05389 -289.62994)"/><path class="cls-1" d="M493.42546,558.73866a61.08112,61.08112,0,0,1,7.15057-15.59244c2.6139,5.46521,5.09777,10.65857,7.59176,15.87311-1.02829,3.24866-1.65124,6.67841-3.18531,9.63474-1.416,2.72891-2.108,6.13952-5.02269,8.23074C496.72367,571.03227,494.1316,565.4951,493.42546,558.73866Z" transform="translate(-404.05389 -289.62994)"/><path class="cls-2" d="M452.13843,433.40986c1.43088,1.932,3.169,3.71045,4.22623,5.82923,1.95466,3.91726,5.85368,5.51492,8.82284,8.21383,2.06017,1.87271,4.82643,2.29667,6.93606,3.95691v1.79975c-.89886,0-1.95643.311-2.67165-.05243-3.5787-1.81867-7.14734-3.68625-10.55117-5.8071a11.19905,11.19905,0,0,1-3.68165-3.7959,6.059,6.059,0,0,0-4.03051-3.39484c-.42663-1.66232-.88563-3.45065-1.3372-5.21023C450.82636,434.29289,451.48243,433.85136,452.13843,433.40986Z" transform="translate(-404.05389 -289.62994)"/><path class="cls-2" d="M607.02319,442.40983q2.99776-4,5.99554-8c1.7684,3.72281.27208,6.73636-4.02417,7.97568A7.38079,7.38079,0,0,1,607.02319,442.40983Z" transform="translate(-404.05389 -289.62994)"/><path class="cls-2" d="M593.0336,451.40983a11.07386,11.07386,0,0,1,1.68564-1.16186c2.67482-1.20581,5.36386-2.3487,7.51113-4.4718.3638-.35971,1.18509-.256,1.79505-.36634a2.563,2.563,0,0,1-1.42521,2.88968c-2.72831,1.77191-5.92,2.58762-8.8659,4.35819C593.44455,452.14174,593.23907,451.7758,593.0336,451.40983Z" transform="translate(-404.05389 -289.62994)"/><path class="cls-2" d="M490.11018,452.40983a2.41681,2.41681,0,0,1,.00354-.47772c3.23422-.57083,5.71706-3.06189,8.98977-3.52228v1.62177c-2.54535,1.10895-5.13619,2.27792-7.77669,3.321C491.08315,453.4489,490.52326,452.74318,490.11018,452.40983Z" transform="translate(-404.05389 -289.62994)"/><path class="cls-2" d="M449.14066,424.40983c1.49492.08533.84874,1.242.99926,2h-2.59469C448.38,425.36342,448.76033,424.88664,449.14066,424.40983Z" transform="translate(-404.05389 -289.62994)"/><path class="cls-2" d="M474.12208,451.40983q.49959.5.99925,1Q474.62174,451.90987,474.12208,451.40983Z" transform="translate(-404.05389 -289.62994)"/><path class="cls-2" d="M536.16643,652.30513l.81653.697-.31507.31531-.69657-.81708Z" transform="translate(-404.05389 -289.62994)"/><ellipse class="cls-2" cx="135.51949" cy="234.27989" rx="0.23547" ry="0.70711"/><path class="cls-2" d="M641.99717,633.40983c2.23845.20917,2.78882.75995,2.99777,3C642.75655,636.2007,642.20618,635.64991,641.99717,633.40983Z" transform="translate(-404.05389 -289.62994)"/><path class="cls-2" d="M645.99419,638.40983c-1.49492-.08532-.84873-1.242-.99925-2C646.48986,636.49516,645.84367,637.65184,645.99419,638.40983Z" transform="translate(-404.05389 -289.62994)"/><path class="cls-2" d="M641.99717,633.40983c-1.49492-.08532-.84873-1.242-.99926-2C642.49283,631.49516,641.84665,632.65184,641.99717,633.40983Z" transform="translate(-404.05389 -289.62994)"/><path class="cls-2" d="M640.99791,631.40983q-.49959-.5-.99925-1Q640.49825,630.90986,640.99791,631.40983Z" transform="translate(-404.05389 -289.62994)"/><path class="cls-2" d="M646.0847,638.30507q.40821.34854.81641.69711l-.31507.31531q-.34819-.40856-.6965-.81714Z" transform="translate(-404.05389 -289.62994)"/><path class="cls-1" d="M579.95276,565.5146q-.40821-.34854-.81647-.69711l.31507-.31531.69656.81711Z" transform="translate(-404.05389 -289.62994)"/><path class="cls-2" d="M569.05144,443.40983c2.67514.155,4.7053,2.6575,7.58012,2.08579,2.677,1.96365,5.90509,1.273,8.51564.70279,3.17793-.69406,6.80956-1.14356,9.31094-3.76557a2.74652,2.74652,0,0,1,2.57249-1.023c.2378,1.52585-.61033,2.32129-1.83708,3.01621-5.34606,3.02859-10.98572,4.83914-17.18448,3.93359a26.39811,26.39811,0,0,1-5.22066-1.72833c-1.28463-.47958-2.52406-1.08032-3.737-1.60687Z" transform="translate(-404.05389 -289.62994)"/><path class="cls-2" d="M605.05109,388.18634q-.95483.082-1.90959.164l-.08758-.64573,1.953-.38236Z" transform="translate(-404.05389 -289.62994)"/><path class="cls-2" d="M604.99827,386.63334l1.90959-.164.08758.64576-1.95295.38234Z" transform="translate(-404.05389 -289.62994)"/><path class="cls-2" d="M568.05219,442.4098q.49968.5.99925,1Q568.55185,442.90983,568.05219,442.4098Z" transform="translate(-404.05389 -289.62994)"/><path class="cls-2" d="M567.96168,442.5146l-.81647-.69711.31507-.31531q.34828.40851.69657.81711Z" transform="translate(-404.05389 -289.62994)"/><path class="cls-2" d="M463.13025,388.40983c.75744.15062,1.91325-.496,1.99852,1C464.37134,389.25921,463.21552,389.9058,463.13025,388.40983Z" transform="translate(-404.05389 -289.62994)"/><path class="cls-2" d="M460.70908,387.255c1.21681.34639,1.819.51782,2.42117.68926a8.23153,8.23153,0,0,1-1.40038.4324C461.58734,388.39688,461.38869,388.02035,460.70908,387.255Z" transform="translate(-404.05389 -289.62994)"/><path class="cls-2" d="M498.99883,441.31929l.69656-.81711.31508.31531q-.4083.34849-.81653.697Z" transform="translate(-404.05389 -289.62994)"/><path class="cls-2" d="M713.437,822.41828a17.45138,17.45138,0,0,1-3.51581-7.53815c-.40441-1.82355-.9544-3.57184-2.939-4.52142a5.99657,5.99657,0,0,1-2.91162-2.44983c-1.40485-3.24872-2.43329-6.66034-3.84961-10.69763-.24817-.1493-1.18408-.71216-2.17053-1.30549-1.1886-4.67681-4.114-8.52929-6.64124-12.62738-2.42419-3.93121-5.37457-7.67126-5.73981-12.60711a10.61776,10.61776,0,0,0-1.17358-3.06855c-.70764-.273-1.13666-.43853-1.529-.59v-4.603c-3.22321-1-6.4726-1.92383-9.66431-3.01605-6.36438-2.17816-12.74231-4.31744-18.9397-6.96393-4.21966-1.80182-8.49164-3.46826-12.55072-5.63812a8.32129,8.32129,0,0,0-2.81256-.3819c-.47369-2.04828-2.6156-1.47485-3.68024-2.34851-2.11645-1.73688-4.67895-2.471-6.89611-3.85309a40.1828,40.1828,0,0,0-7.41022-3.7984q-.9993-.99993-1.99854-2A21.34777,21.34777,0,0,1,615.772,732.621a87.33413,87.33413,0,0,0-15.74359-10.21125v-2h-1.99847c-.94141-1.1087-1.67267-2.601-2.86346-3.25421-3.55634-1.95068-5.79273-5.26678-8.723-7.8482-3.05493-2.69117-6.18762-5.3064-9.08679-8.1579-2.06549-2.03144-3.68225-4.5152-5.71051-6.59027-3.39209-3.47034-6.19263-7.39478-9.20972-11.16455-5.71417-7.13977-10.155-15.0633-14.73187-22.9018-4.67407-8.00488-8.06726-16.62939-11.275-25.29761a76.0302,76.0302,0,0,1-4.20087-14.21173c-.72119-4.53692-2.60315-8.91967-2.14819-13.63775-1.67591-2.17047-.74109-4.70862-1.01288-7.0791-.2713-2.36731-1.0055-4.73493-.91974-7.07978.26306-7.19171-.5155-14.36334.73505-21.60742.83313-4.82617,1.29962-9.7608,2.08532-14.64459.89948-5.59015,2.71039-10.885,4.07746-16.32068.45813-1.82153,1.5216-2.34967,3.57086-2.17145,1.54889,2.6388,4.85028,2.61707,7.452,3.967v-2.50818c-.62475-.28753-1.28521-.59149-2.00116-.921.0506-.45257.0998-.89245.14936-1.33477,2.01837.26361,3.93359.51379,5.84887.76391v-1.51617q-4.47765-2.73029-8.99334-5.48383c-.95117-.453-1.90241-.906-3.07172-1.463.381-1.74377,1.49909-2.78534,2.81329-4.05963,1.112-1.07813,1.02027-3.3996,1.5376-5.47742h2.71784a18.64085,18.64085,0,0,0,1.74475-2.27441,57.26544,57.26544,0,0,1,10.61749-13.55426c2.45209-2.35468,5.16388-4.4361,7.66809-6.7392a80.64157,80.64157,0,0,1,16.76709-11.35126,90.23177,90.23177,0,0,1,12.36438-5.04913,170.49365,170.49365,0,0,0,18.38086-7.384c8.36438-4.151,16.17017-9.29383,21.76135-17.335,3.5885-5.16083,6.90485-10.31055,9.10913-16.22467,1.58454-4.25153,3.28669-8.62757,3.33643-13.02106.085-7.49951.84277-15.00891-.68188-22.57569a57.64214,57.64214,0,0,0-10.13532-23.49127c0-.49786.21149-1.17175-.03308-1.46612-2.1687-2.61017-4.34949-5.21729-6.66309-7.69782-2.35107-2.52069-4.85656-4.897-7.23236-7.27447q7.20072-3.31376,14.22614-6.54694c.91491.67273,1.80749,1.329,2.70013,1.98535v-2.66308c-.627-.53321-1.36792-1.16327-1.99847-1.69947v-3.63745c-.49878,0-1.11774-.19446-1.4784.02887-6.45745,3.9978-13.46691,6.79981-20.52935,9.46155-4.3191,1.62781-8.63153,3.51422-13.12122,4.3905-6.459,1.26068-12.42273,3.88965-18.3266,6.39411a67.12654,67.12654,0,0,0-16.05908,9.54052c-4.35285,3.52015-8.85577,6.61322-12.20862,11.301-2.9284,4.09418-5.84015,8.10626-7.65942,12.82764-.8291,2.15148-2.05377,4.22436-2.44849,6.44848-.39215,2.20978-1.41449,4.12714-1.9566,6.17957-.61615,2.33276-.14234,4.95392-.14234,7.4497v12.97809q.4996.622.99927,1.2439l-.99927.7561v-2c-.28247-.116-.70886-.15136-.82568-.36023-1.59131-2.8432-2.31067-5.99994-3.16248-9.1029-1.08435-3.95008-2.17865-7.89655-2.02423-12.06848.09174-2.47718-.113-4.96924.0542-7.43848.15955-2.35419.62879-4.68744.96192-7.02991H536.3551c-.494-1.46557-1.01232-3.00335-1.68536-5h4.404c1.33228-3.40234,2.56476-6.84839,4.025-10.19482,1.4649-3.3573,3.87372-6.24915,4.96826-9.80518-1.49493-.08532-.84876-1.24194-.99927-2,.45215-1.36249.90424-2.725,1.52582-4.59845,1.05359,1.10779,1.76239,1.85315,2.47119,2.59851,3.43585-3.27172,6.83814-6.57983,10.31745-9.8045,3.20465-2.97022,6.19818-6.30115,9.81262-8.66461,5.30609-3.46948,10.25018-7.57056,16.07611-10.18744,1.8565-.83392,3.126-2.30731,4.76336-3.34351-.41046-.33331-.9074-1.00818-1.21386-.93048a6.71923,6.71923,0,0,0-1.79657,1.0495c-1.44544-.74939-2.25537-1.61774-1.98584-3.119-4.02027,2.33338-8.09064,4.58509-12.04993,7.0177a129.72409,129.72409,0,0,0-20.30176,15.95026,52.05761,52.05761,0,0,0-7.99841,9.16766c-.95184,1.43842-3.11322,2.55463-2.61792,4.86438-1.23157,1.38092-2.94183,2.41846-3.03229,4.5965a2.87478,2.87478,0,0,1-.74377,1.647c-3.3089,3.65692-5.07074,8.05286-6.21655,12.75647v1.47663c-1.83844.6029-1.838.60247-1.99848-1.47663,0-.4942.17572-1.08056-.02734-1.46838-1.91535-3.6593-3.79535-7.34351-5.88519-10.90308-2.02063-3.44159-3.19117-7.54846-7.07782-9.62854-.06373-2.222-1.29584-3.81653-2.78675-5.29748q-5.45407-5.41791-10.86926-10.87488a57.123,57.123,0,0,0-7.90021-6.02185c-3.69024-2.61273-7.528-4.94763-11.31994-7.381a33.42341,33.42341,0,0,0-10.09186-4.42481c-1.66547.50971-3.33191,1.01605-4.99054,1.54712-.04553.01459-.00574.296-.00574.45288.11725.28406.15326.71186.36371.83106,4.84387,2.74328,9.73975,5.396,14.5578,8.18335,6.04608,3.49792,11.45508,7.91754,16.80957,12.34326,5.09082,4.20782,9.21661,9.40356,13.23547,14.64233.6662.52576,1.3324,1.05152,2.04926,1.61719,0,.618-.2785,1.50281.04333,1.89832,2.9939,3.67919,4.50116,8.06518,6.38025,12.3283,2.21942,5.03485,3.16168,10.36554,4.39856,15.60932.6684,2.8338.03791,5.958.1413,8.9461.10669,3.083-1.68262,5.93055-1.02161,9.06012-1.74841,2.18433-1.177,5.08655-2.366,7.50049a80.35676,80.35676,0,0,0-2.87983,7.7768,17.08029,17.08029,0,0,1-.832,1.68359q-.45858-.28455-.917-.56909v-1.85114h-1.71881l-.39111-2h3.10919a34.74108,34.74108,0,0,0,.95459-5.03821c.15246-3.29614.12219-6.6073-.00128-9.90588a12.05929,12.05929,0,0,0-.95331-3.05591,26.51167,26.51167,0,0,0-.91718-7.59021,54.47125,54.47125,0,0,0-13.85644-23.68908c-2.42615-2.38971-4.98981-4.61225-7.5943-6.81519a65.65788,65.65788,0,0,0-10.65686-6.887c-9.8761-5.53479-20.79657-8.3783-31.40882-12.00232-6.25506-2.13605-12.652-3.92267-18.5064-7.05414-3.5434-1.89533-7.56653-2.9632-10.52729-5.929-.2489-.24939-.96374-.033-1.46209-.033-.31073,1.504-.62153,3.008-.94611,4.579.60913.2771,1.292.58777,1.94537.885v2.536c.67865-.35443,1.35736-.70892,2.25214-1.17627,3.57751,4.07825,9.15478,4.25171,13.73932,6.67279-1.25452,1.25544-2.275,2.34589-3.36762,3.35816a75.86961,75.86961,0,0,0-11.90387,13.96417,8.76772,8.76772,0,0,0-.72,2.18115c-.16644,0-.45385-.05481-.48217.00782-2.47663,5.46826-5.56452,10.57659-6.92182,16.64764-1.06811,4.77734-1.79687,9.58832-2.45837,14.38806a22.87185,22.87185,0,0,0,.65362,9.11536c.75928,2.81488.23706,6.07843,1.22992,9.01184,1.6294,4.81408,3.35626,9.59527,5.042,14.39032,2.56391,2.04535,3.4823,5.25189,5.52167,7.74957,8.0426,9.84973,11.91071,13.01148,21.46845,18.08606a44.314,44.314,0,0,0,21.12347,5.564c5.69135-.04406,11.43829.72358,17.05994-.93969,2.23651-.66181,4.54663-1.07111,6.81494-1.62927,3.94543-.97083,7.31561-3.22822,10.93683-4.92566,1.3902-.65168,2.83075-1.19587,4.24957-1.78955,2.02252,4.49658,3.9,8.67077,5.77826,12.84643-5.97235,4.8407-13.05951,6.72485-19.99725,8.8642-7.27588,2.24377-14.78705,2.70379-22.37836,2.65692a69.24188,69.24188,0,0,1-21.77246-4.127,67.64143,67.64143,0,0,1-19.62518-10.54218c-.11664,1.36017.077,2.28919-.288,2.86133-3.29828,5.17041-4.45575,11.15985-6.41138,16.82428-1.108,3.20923-3.00067,6.30035-2.54144,9.93951-.07123,4.33673,1.58826,8.27777,2.81616,12.31659a165.66733,165.66733,0,0,0,6.979,19.58667,109.04227,109.04227,0,0,0,5.53412,11.64929c2.31854,3.86292,4.63665,7.79309,7.12323,11.58869,2.48486,3.79278,5.05322,7.54883,7.61932,11.27344a87.21534,87.21534,0,0,0,10.18042,12.25238c8.8255,8.7948,17.02374,18.26928,27.31573,25.52472,3.79438,2.67486,7.01862,6.18585,10.89563,8.71179,8.06739,5.25616,16.27307,10.32464,24.78919,14.836,1.62872.86273,3.0152,1.62908,3.686,3.42651.53681,1.43841,1.3844,2.77032,1.83344,4.2298.774,2.51513,2.364,4.80963,2.19049,7.55175a5.61306,5.61306,0,0,1,.86169.64472l-.31506.31531-.69659-.81708a2.00568,2.00568,0,0,1,.15-.14295c-1.04456.05237-2.04382.05237-3.043.05237a12.8054,12.8054,0,0,1-1.186.95331c-1.71753-1.72394-3.37378-.80243-5.2558.3747-.76636-1.1225-1.48847-2.18018-2.55158-3.73743v-1.59058c-1.35443-1-2.69562-2.0191-4.07739-2.97967-.20972-.14588-.60791-.02033-.91888-.02033-.11762-.28436-.16681-.75256-.363-.82568-3.39124-1.26422-6.20825-3.52515-9.26679-5.35394q-5.62939-3.36585-11.0589-7.06318c-3.65765-2.49053-7.03625-5.35681-10.71765-7.848a119.10347,119.10347,0,0,1-11.57208-9.4721c-2.84058-2.49677-5.16717-5.60474-8.98285-7.29108a7.41045,7.41045,0,0,0,.02484,2.0755,265.83081,265.83081,0,0,0,10.01331,24.83325c1.38489,3.10028,3.28711,5.96887,4.95025,8.94489,3.3545,6.0025,6.89557,11.85125,10.80628,17.54907a187.0884,187.0884,0,0,0,21.36792,26.06525c4.97235,5.01239,9.61243,10.37536,15.39032,14.59314,3.40637,2.48657,6.17444,5.84356,9.55957,8.36547,6.57013,4.89472,13.25781,9.65522,20.13733,14.09815,2.67157,1.7254,5.21307,4.05273,8.675,4.32922a2.4629,2.4629,0,0,0,2.9978,2,47.86113,47.86113,0,0,0,9.76392,5.89734c8.252,4.13574,16.69513,7.91785,25.21234,11.481,3.24389,1.35712,6.39416,3.16473,9.99029,3.62164h.99921a4.587,4.587,0,0,0,3.99707,2c.72394.22443,1.44061.47724,2.174.66455.59735.15253,1.21454.22657,1.823.33545.08526,1.496,1.24109.84937,1.99853,1h.99921v1h2.9978v1h3.997a9.16933,9.16933,0,0,0,.6225,3.244A257.147,257.147,0,0,0,648.934,784.10755c6.21521,9.86309,12.90113,19.32318,21.011,27.71844a2.8636,2.8636,0,0,1,1.0307,2.5838,2.58736,2.58736,0,0,0,2.87091,2.02735c2.82379-.02021,4.67145,1.61694,6.13989,3.87286.76276,1.17194,1.70575,2.22638,2.56732,3.33386a13.66828,13.66828,0,0,1,6.51319,1.54663c.84063.4773.99548,2.16431,1.46283,3.30609a7.225,7.225,0,0,0,5.7008,1.933c4.31458-.08,8.35572,1.51062,12.48694,2.42126a5.10623,5.10623,0,0,0,3.87793-.31335c1.333-.62817,3.32288.26977,4.35065-1.895C717.28632,827.47205,715.48755,824.88025,713.437,822.41828ZM514.12091,371.88a12.79272,12.79272,0,0,1-1.42389-2.08863c2.41-.73809,3.092.40479,3.7536,3.04145A9.27488,9.27488,0,0,1,514.12091,371.88Zm-32.03106,187.5794c-1.73267,4.06147-3.6131,8.05982-5.76526,12.81946-.63575-1.24164-.93311-1.81354-1.22272-2.3894-1.66-3.30066-3.39551-6.56616-4.95636-9.91315-1.78979-3.83783-1.40631-7.82806.03571-11.60583,1.5722-4.1189,3.58313-8.07013,5.85-13.08368,2.67951,5.90924,4.9278,10.74621,7.05109,15.63739C483.59809,552.11231,482.92157,557.50971,482.08985,559.45941Zm22.89264,9.19465c-1.416,2.72888-2.108,6.13952-5.02271,8.23071-3.23608-5.85254-5.82819-11.38971-6.5343-18.14612a61.0806,61.0806,0,0,1,7.15057-15.59247c2.61389,5.46521,5.09778,10.65857,7.59174,15.87311C507.13953,562.268,506.51654,565.6977,504.98249,568.65406Zm34.75738-44.24427h-.333v-1h.333ZM572.752,485.21143c-2.51069,1.62-5.0058,3.2644-7.91065,5.16107H561.7771c-4.5827-2.81342-9.9754-3.58673-13.66235-7.41376.67285-4.17291,3.46441-7.01495,4.0448-10.79315.12152-.791,1.46087-1.39453,2.20215-2.05176,8.16974,5.1092,16.79681,7.847,26.53027,9.90393C577.78644,481.99762,575.26135,483.59235,572.752,485.21143Zm-12.7533-42.91705q-.32263.04384-.6452.08764-.191-.97715-.382-1.95441c.2113-.0108.4198-.0216.47754-.02716A3.532,3.532,0,0,1,559.99866,442.29438Zm6.01349-47.50348c5.92285-6.6095,13.60534-10.13318,21.17328-14.02857,3.81512-.07959,7.23022-1.89014,10.95373-2.57123,6.23767-1.14105,12.39618-.5888,18.57593-.698,3.31628-.05866,6.64771.73706,10.008,1.15161,1.12323,1.9013-.31427,3.47009-1.23505,4.652-3.79657,4.87268-6.2782,10.68158-10.81006,15.03277-.84412.81043-1.17853,2.15253-1.842,3.42981a35.9772,35.9772,0,0,1,4.17975,19.65045c.36218,4.06452-1.858,7.33258-3.32105,10.83747-.28973.6939-.45391,1.44036-.676,2.16253,1.76843,3.72284.27209,6.73639-4.02417,7.97571a7.3808,7.3808,0,0,1-1.97137.02429q-1.49891,1.5-2.99775,3a2.56316,2.56316,0,0,1-1.42523,2.88971c-2.72833,1.77191-5.92,2.58759-8.8659,4.35816-.28974-.51593-.49524-.8819-.70069-1.24787-1.66321.33332-3.324.67951-4.99029.99622-1.5105.28711-3.16736-.60663-4.58191.92358-.45343.49048-2.04987.41455-2.83295.02027-2.89892-1.45948-6.63092-.22608-9.13891-2.90741-.22944-.24524-.94764-.03266-1.43885-.03266-2.37933-2.44494-4.75873-4.88983-7.00409-7.19708.20447-3.37207-1.17578-6.212-1.10248-9.35577a22.58647,22.58647,0,0,1,4.02326-11.84046c3.3468-5.26007,8.31158-8.39813,14.15216-10.11389,2.7-.79321,5.65247-1.66284,8.33661-1.31342a18.48712,18.48712,0,0,1,8.30444,2.743c2.16565,1.48639,4.09247,2.99,5.27759,5.36493.55457,1.11145,1.22974,2.16265,1.98724,3.4793a20.96317,20.96317,0,0,0,.02326,3.17621c.82782,5.80573-2.3678,9.97754-5.60706,14.149-.485.62457-.9414,1.27155-1.411,1.90814h2.48407c3.383-2.93976,5.05927-7.40356,7.50849-11.85058,0-1.19879-.09388-2.8548.01654-4.497.44909-6.68091-2.59766-11.6781-7.996-15.0105-5.66125-3.49469-10.04486-5.03912-17.52313-2.68793-1.0589.33289-2.31238.046-3.46265.43427-.00976-.65814-.01232-1.101-.01293-1.2179,7.25372-7.32428,15.42132-12.688,23.86218-18.074a9.66245,9.66245,0,0,0-2.84455.42346c-9.26922,4.50207-18.05816,9.673-25.34539,17.182-2.40625,2.47955-4.97651,4.82409-7.2652,7.42486-3.4422,3.91162-5.31293,8.72357-7.35089,13.41681a6.73212,6.73212,0,0,0-.04224,2.477,103.49,103.49,0,0,0,.38788,10.96631,18.16758,18.16758,0,0,1-4.38617-9.51428c-.19818-2.54077-1.13812-4.912-1.07947-7.57184C554.22742,412.156,558.64112,403.0163,566.01215,394.7909ZM576.074,407.70465q.97659-.19116,1.953-.38238c.0108.21149.02155.42016.0271.478a3.52483,3.52483,0,0,1-1.89252.55011Q576.11781,408.02753,576.074,407.70465ZM429.168,389.496h1.78125c.09705.50775.1825.95459.28144,1.47186C429.90521,391.74268,429.08026,391.72718,429.168,389.496Zm81.93225,50.51763c-1.71313.63147-4.41314.462-4.21893,3.481-1.4574-.41821-2.61908-.75152-3.78082-1.0849-1.33234,1.50318-2.70471,2.97406-3.96216,4.53754-.24255.30151-.03485.96564-.03485,1.46246v1.62177c-2.54535,1.10895-5.13623,2.27795-7.77667,3.321-.24366.09626-.80359-.60943-1.21668-.94281H475.12134q-.4996-.5-.99927-1H472.1236v1.79975c-.89887,0-1.95642.311-2.67169-.05243-3.57868-1.81867-7.14734-3.68622-10.55115-5.80707a11.19929,11.19929,0,0,1-3.68164-3.7959,6.05911,6.05911,0,0,0-4.03052-3.39484c-.42663-1.66235-.88562-3.45068-1.33722-5.21026.975-.65619,1.631-1.09772,2.28705-1.53925q-.9993-3.5-1.99847-7h-2.59473c.83478-1.04638,1.21509-1.52319,1.59546-2,0-2.30536.01526-4.6109-.00342-6.91614-.03351-4.13769.57855-8.09484,2.97058-11.62255.22937-.33826.03058-.96729.03058-1.46131.96692-1.66656.96692-1.66656.99915-4.28125-5.45423-5.98309-9.68348-12.84-14.15162-19.91736.97657-.59576,1.91016-1.59082,2.96186-1.7373,6.46814-.90057,13.03808-1.83118,19.49762-.931,5.987.83423,12.05523,1.62726,17.82061,3.82147a63.5943,63.5943,0,0,1,13.864,7.48725,43.27068,43.27068,0,0,1,15.02185,18.1643A51.00619,51.00619,0,0,1,511.035,415.288c.61908,2.45007.67511,5.03784,1.07348,7.54986.3678,2.3183-.55993,4.40052-1.01391,6.5719.381,2.13428-.72882,3.98651-1.457,5.78571a12.203,12.203,0,0,0-.54157,3.21429C509.96588,438.48194,511.17121,438.00354,511.10028,440.01367Zm6.97547,30.13483a7.70127,7.70127,0,0,0-.93207-1.29748V465.0033a3.74084,3.74084,0,0,1,.5415-.67652c6.395-5.24487,9.94489-12.78259,15.24591-18.90667.07129-.08228.32032-.01032.55323-.01032,3.8833,7.73407,9.9516,13.8515,15.65368,20.87335-5.12426,11.91028-9.99109,24.33875-16.48529,36.81836a9.97906,9.97906,0,0,1-1.37524-2.02679c-1.7287-5.78461-4.91425-10.92633-7.19483-16.46484Q521.10132,477.37,518.07575,470.1485ZM703.39221,828.14337a60.90411,60.90411,0,0,1-20.4934-12.10363c-3.12073-2.8534-6.51545-5.46161-9.33826-8.61426-5.22608-5.83679-10.01422-12.02368-14.74176-18.29321-4.573-6.0644-8.09369-12.72663-12.40387-18.9123-2.19165-3.14538-3.70215-6.76629-5.6471-10.4093,2.88221-1.10846,4.82874.99249,7.11145,1.54071,2.46247.59143,5.54554-.02862,7.42945,1.24982,2.33771,1.58642,4.70306.06885,6.99261,1.37866,2.05689,1.17664,4.881,1.02033,7.37091,1.426,2.51123.409,5.02765.786,7.99292,1.24725,2.25336,1.30395,2.96186,4.21838,4.275,6.67334,3.1441,5.87829,6.05505,11.879,9.80529,17.42169.93854,1.38709,1.41358,3.07886,2.22547,4.56274,3.72308,6.80378,7.28277,13.68866,11.49591,20.23047,2.8352,4.40216,5.015,9.22785,7.45984,13.87885.13708.2608.01776.65661.01776.8941l.009.00635C709.37793,831.12091,706.35181,829.22827,703.39221,828.14337Zm10.144,3.174q-.34827-.40842-.6966-.817l.15259-.15265a7.27456,7.27456,0,0,1,.85913.65442Q713.69373,831.1597,713.53626,831.31739Z" transform="translate(-404.05389 -289.62994)"/><path class="cls-2" d="M632.34967,678.42c-3.51678-5.84442-7.73138-11.26282-10.47925-17.58234-.27246-.62683-1.2218-.959-1.85687-1.42792a15.72267,15.72267,0,0,0,.37195,2.84125c1.96545,6.17792,5.26465,11.794,7.91956,17.65961a161.19827,161.19827,0,0,0,10.6419,20.55206c3.584,5.60773,6.64734,11.54608,10.07111,17.26019,1.9284,3.21845,4.046,6.3313,6.21051,9.39832,3.18866,4.51819,6.28241,9.13129,9.82312,13.36334,2.5437,3.04041,4.27118,6.86115,7.92242,8.92523.326-1.17669.652-2.35333,1.02918-3.71484-1.0412-.21088-2.06073-.41742-3.2309-.65436v-2.4928c-.65521-.13757-1.10657-.23236-1.58056-.33191V738.1203c1.26342.57892,2.21283,1.01392,3.22668,1.47846.38916-.84339.70483-1.52747,1.01013-2.189h1.544a26.25257,26.25257,0,0,0-2.132-3.58673c-3.69025-4.47015-7.53491-8.81305-11.20117-13.30237-1.7865-2.18768-3.08191-4.80468-5.0033-6.847-2.20831-2.34735-3.74859-5.09583-5.572-7.67713-2.99695-4.24279-6.14728-8.381-9.03931-12.69329C638.73078,688.39118,635.40894,683.504,632.34967,678.42Z" transform="translate(-404.05389 -289.62994)"/><path class="cls-2" d="M614.69776,524.32428a9.79162,9.79162,0,0,1,5.61535-.87536c3.36792.30078,6.34369-1.35279,9.60327-1.48029a85.94857,85.94857,0,0,0-23.891.55658c-1.33313.25012-2.65741.79193-4.09521.92706a33.67883,33.67883,0,0,0-4.57935.96271q-4.08408.97284-8.15546,1.99811a80.31114,80.31114,0,0,0-13.13269,4.44336c-2.66742,1.189-5.00018,3.14325-8.01043,3.55334-1.07709,1.462-2.15418,2.92389-3.68384,5h2.68457c5.62158-2.872,11.16571-5.99316,17.26593-7.69934,5.22168-1.46051,10.2179-3.61273,15.6731-4.44513,3.19744-.488,6.28131-1.93109,9.63183-1.958C611.08338,523.60041,613.21814,525.08924,614.69776,524.32428Z" transform="translate(-404.05389 -289.62994)"/><path class="cls-2" d="M632.2796,625.1214a60.52027,60.52027,0,0,0,6.25635,5.255c.30573.24163.96631.03344,1.46271.03344a2.71363,2.71363,0,0,0-1.02759-2.57281c-4.30224-3.99976-8.20019-8.395-12.91467-12.00165-4.76093-3.64215-9.03571-7.89978-14.55451-10.52185-1.32122-.62775-2.328-1.91809-3.47943-2.90369-1.7279.5951-3.14056-2.52746-4.99627-.42981v1.42981c2.97772,2,5.92651,4.04474,8.93878,5.99109C619.18335,614.065,626.26911,618.87445,632.2796,625.1214Z" transform="translate(-404.05389 -289.62994)"/><path class="cls-2" d="M593.07843,592.12531c.26386,2.8349,1.57086,5.17431,3.76453,7.66662.77484-3.58276-2.42688-5.50384-1.83295-9.45208C593.66211,591.56043,593.05493,591.87226,593.07843,592.12531Z" transform="translate(-404.05389 -289.62994)"/><path class="cls-2" d="M552.17359,730.4494c-1.58966-.91876-3.42945-1.43164-4.94837-2.44018-4.4447-2.9513-8.84656-5.97638-13.144-9.13751-4.4787-3.29444-8.92352-6.65277-13.18439-10.22083-3.99768-3.34772-7.86951-6.87231-11.551-10.56439-3.91632-3.92749-7.568-8.12158-11.289-12.24109a83.33537,83.33537,0,0,1-6.63977-7.72046c-2.97027-4.23456-6.10583-8.34765-8.94055-12.69476-3.31714-5.08692-6.92456-9.94763-9.48834-15.51386-.57434-1.24713-.8443-3.23632-2.863-3.50653q-.4997-1.5-.99926-3h-2.47821a22.4986,22.4986,0,0,1-6.63239-10.58124c-.8009-2.82128-.86969-3.08679,1.11658-6.41876-1.87451-5.70923-3.85425-11.38672-5.589-17.13824-1.29834-4.30463-2.8255-8.65051-3.26465-13.07605-.53351-5.37464-2.27533-9.81885-6.24463-13.43463-.42981-.3916-.53363-1.11872-.89972-1.60663a277.12543,277.12543,0,0,1-15.55365-24.01447c-2.17865-3.63043-4.41357-7.41613-5.46924-11.68878a8.46237,8.46237,0,0,0-2.02881-4.08783c-1.26348-1.16833-.02667-3.29883-1.91986-3.95337a52.26562,52.26562,0,0,1-.83355,9.615c-.85791,3.91254.125,8.02161.72216,12.057.53058,3.58539-.692,7.55688.3299,10.90893,1.09393,3.58814.49792,7.2074,1.55084,10.79737a92.82229,92.82229,0,0,1,2.087,10.61969,68.2651,68.2651,0,0,0,3.284,12.17065c1.4776,4.03058,2.5611,8.213,4.43152,12.15619a45.965,45.965,0,0,1,3.32788,7.59082,42.69738,42.69738,0,0,0,5.45575,11.70886c4.689,7.42249,8.85211,15.19355,14.51563,22.03846,3.76166,4.54638,6.85479,9.65826,11.09942,13.84375a16.12041,16.12041,0,0,1,2.78376,2.85015c2.91571,4.91431,7.27826,8.54352,11.4439,12.15851,4.7674,4.13721,9.533,8.28363,14.465,12.48468h3.27887v2.37555c1.06464.7638,2.09485,1.46735,3.08527,2.22321a31.97643,31.97643,0,0,0,2.99395,2.37793c6.27143,3.677,12.10285,8.03216,18.59107,11.41687,4.21356,2.19806,8.27624,4.81366,12.42828,7.201,4.401,2.53039,9.28046,4.129,13.40961,7.26635,1.33514,1.01447,3.60687.79444,5.45019,1.1391A9.71464,9.71464,0,0,0,552.17359,730.4494Z" transform="translate(-404.05389 -289.62994)"/><path class="cls-2" d="M615.57294,558.40979c-3.27332,1.30963-7.32013.97693-9.549,4.69153v2.81909q1.218,1.19688,2.484,2.44074c5.45379.27954,10.83227.30157,13.603-6.01465C620.61914,559.4115,617.85822,559.34223,615.57294,558.40979Z" transform="translate(-404.05389 -289.62994)"/><path class="cls-2" d="M599.74072,570.46759c2.81073-.74884,2.51227-2.75348,1.92579-5.27466C598.73383,567.09766,598.73383,567.09766,599.74072,570.46759Z" transform="translate(-404.05389 -289.62994)"/><path class="cls-2" d="M595.0296,416.44214a13.43158,13.43158,0,0,0-2.9096-.03235v4.084c1.38043,1.55426,2.46417,2.77447,3.75793,4.2312,1.412-.4632,2.85266-.93585,4.39893-1.44318C598.91181,418.29651,597.99677,417.13477,595.0296,416.44214Z" transform="translate(-404.05389 -289.62994)"/><path class="cls-2" d="M466.285,419.7619V424.317h4.829c1.076-1.69159,2.23462-3.51312,3.87494-6.092-1.56757-.84308-2.4917-1.77051-3.37116-1.72986C469.26746,416.6037,467.64984,418.24884,466.285,419.7619Z" transform="translate(-404.05389 -289.62994)"/><path class="cls-2" d="M541.0857,465.465c-2.5058-3.26892-4.631-6.04114-6.77826-8.84229V486.7168c1.57873-4.08142,3.27484-7.70569,4.36255-11.5044C539.64478,471.80847,542.34033,468.71619,541.0857,465.465Z" transform="translate(-404.05389 -289.62994)"/><path class="cls-4" d="M488.20218,407.30508l.81647.6971-.31508.31531-.69656-.81713Z" transform="translate(-404.05389 -289.62994)"/></svg>